<svg width="w-full" height="h-full" viewBox="0 0 1434 576" fill="none" xmlns="http://www.w3.org/2000/svg">
<g clip-path="url(#clip0_109_178)">
<rect width="1434" height="576" rx="16" fill="#ECEBEB"/>
<rect x="26" y="26" width="1382" height="177" rx="16" fill="#FFFDFD"/>
<circle cx="124" cy="114" r="71" fill="#D9D9D9"/>
<path d="M179 158.5C134.2 120.9 87 142.833 69 158.5C81.8 173.7 93.5 179.463 110.5 183.5C123.833 186.667 156.2 186.1 179 158.5Z" fill="white"/>
<circle cx="124" cy="106" r="27" fill="white"/>
<path d="M242.659 70.9091H246.182V91.7045C246.182 93.5606 245.841 95.1373 245.159 96.4347C244.477 97.732 243.516 98.7169 242.276 99.3892C241.035 100.062 239.572 100.398 237.886 100.398C236.295 100.398 234.88 100.109 233.639 99.5312C232.399 98.9441 231.423 98.1108 230.713 97.0312C230.003 95.9517 229.648 94.6686 229.648 93.1818H233.114C233.114 94.0057 233.317 94.7254 233.724 95.3409C234.141 95.947 234.709 96.4205 235.429 96.7614C236.149 97.1023 236.968 97.2727 237.886 97.2727C238.9 97.2727 239.761 97.0597 240.472 96.6335C241.182 96.2074 241.722 95.5824 242.091 94.7585C242.47 93.9252 242.659 92.9072 242.659 91.7045V70.9091ZM259.207 100.511C257.825 100.511 256.57 100.251 255.443 99.7301C254.316 99.1998 253.421 98.4375 252.759 97.4432C252.096 96.4394 251.764 95.2273 251.764 93.8068C251.764 92.5568 252.01 91.5436 252.503 90.767C252.995 89.9811 253.653 89.3655 254.477 88.9205C255.301 88.4754 256.21 88.1439 257.205 87.9261C258.208 87.6989 259.217 87.5189 260.23 87.3864C261.556 87.2159 262.631 87.0881 263.455 87.0028C264.288 86.9081 264.894 86.7519 265.273 86.5341C265.661 86.3163 265.855 85.9375 265.855 85.3977V85.2841C265.855 83.8826 265.472 82.7936 264.705 82.017C263.947 81.2405 262.796 80.8523 261.253 80.8523C259.652 80.8523 258.398 81.2027 257.489 81.9034C256.58 82.6042 255.94 83.3523 255.571 84.1477L252.389 83.0114C252.957 81.6856 253.715 80.6534 254.662 79.9148C255.618 79.1667 256.66 78.6458 257.787 78.3523C258.923 78.0492 260.041 77.8977 261.139 77.8977C261.84 77.8977 262.645 77.983 263.554 78.1534C264.473 78.3144 265.358 78.6506 266.21 79.1619C267.072 79.6733 267.787 80.4451 268.355 81.4773C268.923 82.5095 269.207 83.892 269.207 85.625V100H265.855V97.0455H265.685C265.457 97.5189 265.079 98.0256 264.548 98.5653C264.018 99.1051 263.313 99.5644 262.432 99.9432C261.551 100.322 260.476 100.511 259.207 100.511ZM259.719 97.5C261.045 97.5 262.162 97.2396 263.071 96.7188C263.99 96.1979 264.681 95.5256 265.145 94.7017C265.618 93.8778 265.855 93.0114 265.855 92.1023V89.0341C265.713 89.2045 265.401 89.3608 264.918 89.5028C264.444 89.6354 263.895 89.7538 263.27 89.858C262.654 89.9527 262.053 90.0379 261.466 90.1136C260.888 90.1799 260.42 90.2367 260.06 90.2841C259.188 90.3977 258.374 90.5824 257.616 90.8381C256.868 91.0843 256.262 91.4583 255.798 91.9602C255.344 92.4527 255.116 93.125 255.116 93.9773C255.116 95.142 255.547 96.0227 256.409 96.6193C257.28 97.2064 258.384 97.5 259.719 97.5ZM278.678 86.875V100H275.326V78.1818H278.565V81.5909H278.849C279.36 80.483 280.137 79.5928 281.178 78.9205C282.22 78.2386 283.565 77.8977 285.212 77.8977C286.69 77.8977 287.982 78.2008 289.09 78.8068C290.198 79.4034 291.06 80.3125 291.675 81.5341C292.291 82.7462 292.599 84.2803 292.599 86.1364V100H289.246V86.3636C289.246 84.6496 288.801 83.3144 287.911 82.358C287.021 81.392 285.799 80.9091 284.246 80.9091C283.176 80.9091 282.22 81.1411 281.377 81.6051C280.544 82.0691 279.886 82.7462 279.403 83.6364C278.92 84.5265 278.678 85.6061 278.678 86.875ZM305.145 100.511C303.762 100.511 302.508 100.251 301.381 99.7301C300.254 99.1998 299.359 98.4375 298.696 97.4432C298.033 96.4394 297.702 95.2273 297.702 93.8068C297.702 92.5568 297.948 91.5436 298.44 90.767C298.933 89.9811 299.591 89.3655 300.415 88.9205C301.239 88.4754 302.148 88.1439 303.142 87.9261C304.146 87.6989 305.154 87.5189 306.168 87.3864C307.493 87.2159 308.568 87.0881 309.392 87.0028C310.225 86.9081 310.831 86.7519 311.21 86.5341C311.598 86.3163 311.793 85.9375 311.793 85.3977V85.2841C311.793 83.8826 311.409 82.7936 310.642 82.017C309.884 81.2405 308.734 80.8523 307.19 80.8523C305.59 80.8523 304.335 81.2027 303.426 81.9034C302.517 82.6042 301.878 83.3523 301.509 84.1477L298.327 83.0114C298.895 81.6856 299.652 80.6534 300.599 79.9148C301.556 79.1667 302.598 78.6458 303.724 78.3523C304.861 78.0492 305.978 77.8977 307.077 77.8977C307.777 77.8977 308.582 77.983 309.491 78.1534C310.41 78.3144 311.295 78.6506 312.148 79.1619C313.009 79.6733 313.724 80.4451 314.293 81.4773C314.861 82.5095 315.145 83.892 315.145 85.625V100H311.793V97.0455H311.622C311.395 97.5189 311.016 98.0256 310.486 98.5653C309.955 99.1051 309.25 99.5644 308.369 99.9432C307.489 100.322 306.414 100.511 305.145 100.511ZM305.656 97.5C306.982 97.5 308.099 97.2396 309.009 96.7188C309.927 96.1979 310.618 95.5256 311.082 94.7017C311.556 93.8778 311.793 93.0114 311.793 92.1023V89.0341C311.651 89.2045 311.338 89.3608 310.855 89.5028C310.382 89.6354 309.832 89.7538 309.207 89.858C308.592 89.9527 307.991 90.0379 307.403 90.1136C306.826 90.1799 306.357 90.2367 305.997 90.2841C305.126 90.3977 304.312 90.5824 303.554 90.8381C302.806 91.0843 302.2 91.4583 301.736 91.9602C301.281 92.4527 301.054 93.125 301.054 93.9773C301.054 95.142 301.485 96.0227 302.347 96.6193C303.218 97.2064 304.321 97.5 305.656 97.5ZM322.641 108.182C322.073 108.182 321.567 108.134 321.121 108.04C320.676 107.955 320.369 107.869 320.198 107.784L321.05 104.83C321.865 105.038 322.585 105.114 323.21 105.057C323.835 105 324.388 104.721 324.871 104.219C325.364 103.726 325.814 102.926 326.221 101.818L326.846 100.114L318.778 78.1818H322.414L328.437 95.5682H328.664L334.687 78.1818H338.323L329.062 103.182C328.645 104.309 328.129 105.241 327.513 105.98C326.898 106.728 326.183 107.282 325.369 107.642C324.564 108.002 323.655 108.182 322.641 108.182ZM346.1 86.875V100H342.748V78.1818H345.987V81.5909H346.271C346.782 80.483 347.558 79.5928 348.6 78.9205C349.642 78.2386 350.987 77.8977 352.634 77.8977C354.112 77.8977 355.404 78.2008 356.512 78.8068C357.62 79.4034 358.482 80.3125 359.097 81.5341C359.713 82.7462 360.021 84.2803 360.021 86.1364V100H356.668V86.3636C356.668 84.6496 356.223 83.3144 355.333 82.358C354.443 81.392 353.221 80.9091 351.668 80.9091C350.598 80.9091 349.642 81.1411 348.799 81.6051C347.966 82.0691 347.308 82.7462 346.825 83.6364C346.342 84.5265 346.1 85.6061 346.1 86.875ZM372.567 100.511C371.184 100.511 369.929 100.251 368.803 99.7301C367.676 99.1998 366.781 98.4375 366.118 97.4432C365.455 96.4394 365.124 95.2273 365.124 93.8068C365.124 92.5568 365.37 91.5436 365.862 90.767C366.355 89.9811 367.013 89.3655 367.837 88.9205C368.661 88.4754 369.57 88.1439 370.564 87.9261C371.568 87.6989 372.576 87.5189 373.589 87.3864C374.915 87.2159 375.99 87.0881 376.814 87.0028C377.647 86.9081 378.253 86.7519 378.632 86.5341C379.02 86.3163 379.214 85.9375 379.214 85.3977V85.2841C379.214 83.8826 378.831 82.7936 378.064 82.017C377.306 81.2405 376.156 80.8523 374.612 80.8523C373.012 80.8523 371.757 81.2027 370.848 81.9034C369.939 82.6042 369.3 83.3523 368.93 84.1477L365.749 83.0114C366.317 81.6856 367.074 80.6534 368.021 79.9148C368.978 79.1667 370.019 78.6458 371.146 78.3523C372.283 78.0492 373.4 77.8977 374.499 77.8977C375.199 77.8977 376.004 77.983 376.913 78.1534C377.832 78.3144 378.717 78.6506 379.57 79.1619C380.431 79.6733 381.146 80.4451 381.714 81.4773C382.283 82.5095 382.567 83.892 382.567 85.625V100H379.214V97.0455H379.044C378.817 97.5189 378.438 98.0256 377.908 98.5653C377.377 99.1051 376.672 99.5644 375.791 99.9432C374.911 100.322 373.836 100.511 372.567 100.511ZM373.078 97.5C374.404 97.5 375.521 97.2396 376.43 96.7188C377.349 96.1979 378.04 95.5256 378.504 94.7017C378.978 93.8778 379.214 93.0114 379.214 92.1023V89.0341C379.072 89.2045 378.76 89.3608 378.277 89.5028C377.804 89.6354 377.254 89.7538 376.629 89.858C376.014 89.9527 375.412 90.0379 374.825 90.1136C374.248 90.1799 373.779 90.2367 373.419 90.2841C372.548 90.3977 371.733 90.5824 370.976 90.8381C370.228 91.0843 369.622 91.4583 369.158 91.9602C368.703 92.4527 368.476 93.125 368.476 93.9773C368.476 95.142 368.907 96.0227 369.768 96.6193C370.64 97.2064 371.743 97.5 373.078 97.5Z" fill="black"/>
<path d="M231.17 154V127.818H246.972V130.631H234.341V139.477H246.153V142.29H234.341V151.188H247.176V154H231.17ZM255.294 142.188V154H252.277V134.364H255.192V137.432H255.447C255.908 136.435 256.607 135.634 257.544 135.028C258.482 134.415 259.692 134.108 261.175 134.108C262.504 134.108 263.668 134.381 264.665 134.926C265.662 135.463 266.438 136.281 266.991 137.381C267.545 138.472 267.822 139.852 267.822 141.523V154H264.805V141.727C264.805 140.185 264.405 138.983 263.604 138.122C262.803 137.253 261.703 136.818 260.305 136.818C259.342 136.818 258.482 137.027 257.723 137.445C256.973 137.862 256.381 138.472 255.946 139.273C255.511 140.074 255.294 141.045 255.294 142.188ZM281.262 161.773C279.804 161.773 278.551 161.585 277.503 161.21C276.455 160.844 275.581 160.358 274.882 159.753C274.192 159.156 273.642 158.517 273.233 157.835L275.637 156.148C275.909 156.506 276.255 156.915 276.672 157.375C277.09 157.844 277.661 158.249 278.385 158.589C279.118 158.939 280.077 159.114 281.262 159.114C282.847 159.114 284.155 158.73 285.186 157.963C286.218 157.196 286.733 155.994 286.733 154.358V150.369H286.478C286.256 150.727 285.941 151.17 285.532 151.699C285.131 152.219 284.551 152.683 283.793 153.092C283.043 153.493 282.029 153.693 280.75 153.693C279.165 153.693 277.742 153.318 276.48 152.568C275.228 151.818 274.235 150.727 273.502 149.295C272.777 147.864 272.415 146.125 272.415 144.08C272.415 142.068 272.769 140.317 273.476 138.825C274.184 137.325 275.168 136.166 276.429 135.348C277.691 134.521 279.148 134.108 280.801 134.108C282.08 134.108 283.094 134.321 283.844 134.747C284.603 135.165 285.182 135.642 285.583 136.179C285.992 136.707 286.307 137.142 286.529 137.483H286.836V134.364H289.75V154.562C289.75 156.25 289.367 157.622 288.6 158.679C287.841 159.744 286.819 160.524 285.532 161.018C284.253 161.521 282.83 161.773 281.262 161.773ZM281.159 150.983C282.37 150.983 283.392 150.706 284.228 150.152C285.063 149.598 285.698 148.801 286.132 147.761C286.567 146.722 286.784 145.477 286.784 144.028C286.784 142.614 286.571 141.365 286.145 140.283C285.719 139.2 285.088 138.352 284.253 137.739C283.418 137.125 282.387 136.818 281.159 136.818C279.881 136.818 278.816 137.142 277.963 137.79C277.12 138.437 276.485 139.307 276.059 140.398C275.641 141.489 275.432 142.699 275.432 144.028C275.432 145.392 275.645 146.598 276.071 147.646C276.506 148.686 277.145 149.504 277.989 150.101C278.841 150.689 279.898 150.983 281.159 150.983ZM297.472 154.205C296.841 154.205 296.3 153.979 295.848 153.527C295.397 153.075 295.171 152.534 295.171 151.903C295.171 151.273 295.397 150.732 295.848 150.28C296.3 149.828 296.841 149.602 297.472 149.602C298.103 149.602 298.644 149.828 299.096 150.28C299.547 150.732 299.773 151.273 299.773 151.903C299.773 152.321 299.667 152.705 299.453 153.054C299.249 153.403 298.972 153.685 298.623 153.898C298.282 154.102 297.898 154.205 297.472 154.205ZM315.721 154V127.818H331.522V130.631H318.892V139.477H330.704V142.29H318.892V151.188H331.727V154H315.721ZM339.845 127.818V154H336.828V127.818H339.845ZM353.604 154.409C351.712 154.409 350.08 153.991 348.707 153.156C347.344 152.312 346.291 151.136 345.55 149.628C344.817 148.111 344.45 146.347 344.45 144.335C344.45 142.324 344.817 140.551 345.55 139.017C346.291 137.474 347.322 136.273 348.643 135.412C349.973 134.543 351.524 134.108 353.297 134.108C354.32 134.108 355.33 134.278 356.327 134.619C357.324 134.96 358.232 135.514 359.05 136.281C359.868 137.04 360.52 138.045 361.006 139.298C361.491 140.551 361.734 142.094 361.734 143.926V145.205H346.598V142.597H358.666C358.666 141.489 358.445 140.5 358.001 139.631C357.567 138.761 356.945 138.075 356.135 137.572C355.334 137.07 354.388 136.818 353.297 136.818C352.095 136.818 351.055 137.116 350.178 137.713C349.308 138.301 348.639 139.068 348.17 140.014C347.702 140.96 347.467 141.974 347.467 143.057V144.795C347.467 146.278 347.723 147.536 348.234 148.567C348.754 149.589 349.474 150.369 350.395 150.906C351.315 151.435 352.385 151.699 353.604 151.699C354.396 151.699 355.112 151.588 355.751 151.366C356.399 151.136 356.957 150.795 357.426 150.344C357.895 149.884 358.257 149.312 358.513 148.631L361.428 149.449C361.121 150.438 360.605 151.307 359.881 152.057C359.156 152.798 358.261 153.378 357.196 153.795C356.131 154.205 354.933 154.409 353.604 154.409ZM374.864 134.364V136.92H364.688V134.364H374.864ZM367.653 129.659H370.67V148.375C370.67 149.227 370.794 149.866 371.041 150.293C371.297 150.71 371.621 150.991 372.013 151.136C372.413 151.273 372.835 151.341 373.278 151.341C373.611 151.341 373.884 151.324 374.097 151.29C374.31 151.247 374.48 151.213 374.608 151.188L375.222 153.898C375.017 153.974 374.732 154.051 374.365 154.128C373.999 154.213 373.534 154.256 372.972 154.256C372.119 154.256 371.284 154.072 370.466 153.706C369.656 153.339 368.983 152.781 368.446 152.031C367.918 151.281 367.653 150.335 367.653 149.193V129.659ZM379.402 154V134.364H382.317V137.33H382.521C382.879 136.358 383.527 135.57 384.464 134.964C385.402 134.359 386.459 134.057 387.635 134.057C387.857 134.057 388.134 134.061 388.466 134.07C388.798 134.078 389.05 134.091 389.22 134.108V137.176C389.118 137.151 388.884 137.112 388.517 137.061C388.159 137.001 387.78 136.972 387.379 136.972C386.425 136.972 385.572 137.172 384.822 137.572C384.081 137.964 383.493 138.51 383.058 139.209C382.632 139.899 382.419 140.687 382.419 141.574V154H379.402ZM392.797 154V134.364H395.814V154H392.797ZM394.331 131.091C393.743 131.091 393.235 130.891 392.809 130.49C392.392 130.089 392.183 129.608 392.183 129.045C392.183 128.483 392.392 128.001 392.809 127.601C393.235 127.2 393.743 127 394.331 127C394.919 127 395.422 127.2 395.839 127.601C396.265 128.001 396.478 128.483 396.478 129.045C396.478 129.608 396.265 130.089 395.839 130.49C395.422 130.891 394.919 131.091 394.331 131.091ZM409.317 154.409C407.476 154.409 405.891 153.974 404.561 153.105C403.232 152.236 402.209 151.038 401.493 149.513C400.777 147.987 400.419 146.244 400.419 144.284C400.419 142.29 400.786 140.53 401.518 139.004C402.26 137.47 403.291 136.273 404.612 135.412C405.942 134.543 407.493 134.108 409.266 134.108C410.646 134.108 411.891 134.364 412.999 134.875C414.107 135.386 415.014 136.102 415.722 137.023C416.429 137.943 416.868 139.017 417.038 140.244H414.021C413.791 139.349 413.28 138.557 412.487 137.866C411.703 137.168 410.646 136.818 409.317 136.818C408.141 136.818 407.109 137.125 406.223 137.739C405.345 138.344 404.659 139.2 404.165 140.308C403.679 141.408 403.436 142.699 403.436 144.182C403.436 145.699 403.675 147.02 404.152 148.145C404.638 149.27 405.32 150.143 406.197 150.766C407.084 151.388 408.124 151.699 409.317 151.699C410.101 151.699 410.812 151.562 411.452 151.29C412.091 151.017 412.632 150.625 413.075 150.114C413.518 149.602 413.834 148.989 414.021 148.273H417.038C416.868 149.432 416.446 150.476 415.773 151.405C415.108 152.325 414.226 153.058 413.126 153.604C412.036 154.141 410.766 154.409 409.317 154.409ZM421.449 154V134.364H424.466V154H421.449ZM422.983 131.091C422.395 131.091 421.888 130.891 421.462 130.49C421.044 130.089 420.835 129.608 420.835 129.045C420.835 128.483 421.044 128.001 421.462 127.601C421.888 127.2 422.395 127 422.983 127C423.571 127 424.074 127.2 424.491 127.601C424.918 128.001 425.131 128.483 425.131 129.045C425.131 129.608 424.918 130.089 424.491 130.49C424.074 130.891 423.571 131.091 422.983 131.091ZM443.901 138.761L441.191 139.528C441.02 139.077 440.769 138.638 440.436 138.212C440.113 137.777 439.669 137.419 439.107 137.138C438.544 136.857 437.824 136.716 436.946 136.716C435.745 136.716 434.743 136.993 433.942 137.547C433.15 138.092 432.753 138.787 432.753 139.631C432.753 140.381 433.026 140.973 433.571 141.408C434.117 141.842 434.969 142.205 436.128 142.494L439.043 143.21C440.799 143.636 442.107 144.288 442.968 145.166C443.828 146.036 444.259 147.156 444.259 148.528C444.259 149.653 443.935 150.659 443.287 151.545C442.648 152.432 441.753 153.131 440.603 153.642C439.452 154.153 438.114 154.409 436.588 154.409C434.586 154.409 432.928 153.974 431.615 153.105C430.303 152.236 429.472 150.966 429.123 149.295L431.986 148.58C432.259 149.636 432.775 150.429 433.533 150.957C434.3 151.486 435.301 151.75 436.537 151.75C437.944 151.75 439.06 151.452 439.887 150.855C440.722 150.25 441.14 149.526 441.14 148.682C441.14 148 440.901 147.429 440.424 146.969C439.946 146.5 439.213 146.151 438.225 145.92L434.952 145.153C433.154 144.727 431.833 144.067 430.989 143.172C430.154 142.268 429.736 141.139 429.736 139.784C429.736 138.676 430.047 137.696 430.669 136.844C431.3 135.991 432.157 135.322 433.239 134.837C434.33 134.351 435.566 134.108 436.946 134.108C438.89 134.108 440.415 134.534 441.523 135.386C442.64 136.239 443.432 137.364 443.901 138.761ZM457.34 134.364V136.92H447.164V134.364H457.34ZM450.13 129.659H453.147V148.375C453.147 149.227 453.271 149.866 453.518 150.293C453.773 150.71 454.097 150.991 454.489 151.136C454.89 151.273 455.312 151.341 455.755 151.341C456.087 151.341 456.36 151.324 456.573 151.29C456.786 151.247 456.957 151.213 457.085 151.188L457.698 153.898C457.494 153.974 457.208 154.051 456.842 154.128C456.475 154.213 456.011 154.256 455.448 154.256C454.596 154.256 453.761 154.072 452.942 153.706C452.133 153.339 451.46 152.781 450.923 152.031C450.394 151.281 450.13 150.335 450.13 149.193V129.659ZM467.657 154.46C466.413 154.46 465.283 154.226 464.269 153.757C463.255 153.28 462.45 152.594 461.853 151.699C461.256 150.795 460.958 149.705 460.958 148.426C460.958 147.301 461.18 146.389 461.623 145.69C462.066 144.983 462.658 144.429 463.4 144.028C464.141 143.628 464.96 143.33 465.854 143.134C466.758 142.929 467.665 142.767 468.577 142.648C469.771 142.494 470.738 142.379 471.479 142.303C472.229 142.217 472.775 142.077 473.116 141.881C473.465 141.685 473.64 141.344 473.64 140.858V140.756C473.64 139.494 473.295 138.514 472.604 137.815C471.923 137.116 470.887 136.767 469.498 136.767C468.058 136.767 466.928 137.082 466.11 137.713C465.292 138.344 464.717 139.017 464.384 139.733L461.521 138.71C462.032 137.517 462.714 136.588 463.566 135.923C464.427 135.25 465.364 134.781 466.379 134.517C467.401 134.244 468.407 134.108 469.396 134.108C470.026 134.108 470.751 134.185 471.569 134.338C472.396 134.483 473.192 134.786 473.96 135.246C474.735 135.706 475.379 136.401 475.89 137.33C476.401 138.259 476.657 139.503 476.657 141.062V154H473.64V151.341H473.487C473.282 151.767 472.941 152.223 472.464 152.709C471.987 153.195 471.352 153.608 470.559 153.949C469.766 154.29 468.799 154.46 467.657 154.46ZM468.117 151.75C469.31 151.75 470.316 151.516 471.134 151.047C471.961 150.578 472.583 149.973 473.001 149.232C473.427 148.49 473.64 147.71 473.64 146.892V144.131C473.512 144.284 473.231 144.425 472.796 144.553C472.37 144.672 471.876 144.778 471.313 144.872C470.759 144.957 470.218 145.034 469.69 145.102C469.17 145.162 468.748 145.213 468.424 145.256C467.64 145.358 466.907 145.524 466.225 145.754C465.552 145.976 465.006 146.312 464.589 146.764C464.18 147.207 463.975 147.812 463.975 148.58C463.975 149.628 464.363 150.42 465.138 150.957C465.923 151.486 466.915 151.75 468.117 151.75Z" fill="black"/>
<g clip-path="url(#clip1_109_178)">
<path d="M1003.5 100L1011.92 125.912H1039.16L1017.12 141.926L1025.54 167.838L1003.5 151.824L981.458 167.838L989.877 141.926L967.835 125.912H995.081L1003.5 100Z" fill="#EFD404"/>
<path d="M1088.5 100L1096.92 125.912H1124.16L1102.12 141.926L1110.54 167.838L1088.5 151.824L1066.46 167.838L1074.88 141.926L1052.84 125.912H1080.08L1088.5 100Z" fill="#EFD404"/>
<path d="M1173.5 100L1181.92 125.912H1209.16L1187.12 141.926L1195.54 167.838L1173.5 151.824L1151.46 167.838L1159.88 141.926L1137.84 125.912H1165.08L1173.5 100Z" fill="#EFD404"/>
<path d="M1258.5 100L1266.92 125.912H1294.16L1272.12 141.926L1280.54 167.838L1258.5 151.824L1236.46 167.838L1244.88 141.926L1222.84 125.912H1250.08L1258.5 100Z" fill="#EFD404"/>
<path d="M1343.5 100L1351.92 125.912H1379.16L1357.12 141.926L1365.54 167.838L1343.5 151.824L1321.46 167.838L1329.88 141.926L1307.84 125.912H1335.08L1343.5 100Z" fill="#EFD404"/>
</g>
<path d="M969.17 84V57.8182H978.017C980.071 57.8182 981.75 58.1889 983.054 58.9304C984.366 59.6634 985.338 60.6562 985.969 61.9091C986.599 63.1619 986.915 64.5597 986.915 66.1023C986.915 67.6449 986.599 69.0469 985.969 70.3082C985.347 71.5696 984.384 72.5753 983.08 73.3253C981.776 74.0668 980.105 74.4375 978.068 74.4375H971.727V71.625H977.966C979.372 71.625 980.501 71.3821 981.354 70.8963C982.206 70.4105 982.824 69.7543 983.207 68.9276C983.599 68.0923 983.795 67.1506 983.795 66.1023C983.795 65.054 983.599 64.1165 983.207 63.2898C982.824 62.4631 982.202 61.8153 981.341 61.3466C980.48 60.8693 979.338 60.6307 977.915 60.6307H972.341V84H969.17ZM999.635 84.4091C997.743 84.4091 996.111 83.9915 994.739 83.1562C993.375 82.3125 992.322 81.1364 991.581 79.6278C990.848 78.1108 990.482 76.3466 990.482 74.3352C990.482 72.3239 990.848 70.5511 991.581 69.017C992.322 67.4744 993.354 66.2727 994.675 65.4119C996.004 64.5426 997.555 64.108 999.328 64.108C1000.35 64.108 1001.36 64.2784 1002.36 64.6193C1003.36 64.9602 1004.26 65.5142 1005.08 66.2812C1005.9 67.0398 1006.55 68.0455 1007.04 69.2983C1007.52 70.5511 1007.77 72.0937 1007.77 73.9261V75.2045H992.629V72.5966H1004.7C1004.7 71.4886 1004.48 70.5 1004.03 69.6307C1003.6 68.7614 1002.98 68.0753 1002.17 67.5724C1001.37 67.0696 1000.42 66.8182 999.328 66.8182C998.126 66.8182 997.087 67.1165 996.209 67.7131C995.339 68.3011 994.67 69.0682 994.202 70.0142C993.733 70.9602 993.499 71.9744 993.499 73.0568V74.7955C993.499 76.2784 993.754 77.5355 994.266 78.5668C994.786 79.5895 995.506 80.3693 996.426 80.9062C997.347 81.4347 998.416 81.6989 999.635 81.6989C1000.43 81.6989 1001.14 81.5881 1001.78 81.3665C1002.43 81.1364 1002.99 80.7955 1003.46 80.3438C1003.93 79.8835 1004.29 79.3125 1004.54 78.6307L1007.46 79.4489C1007.15 80.4375 1006.64 81.3068 1005.91 82.0568C1005.19 82.7983 1004.29 83.3778 1003.23 83.7955C1002.16 84.2045 1000.96 84.4091 999.635 84.4091ZM1012.36 84V64.3636H1015.27V67.3295H1015.47C1015.83 66.358 1016.48 65.5696 1017.42 64.9645C1018.36 64.3594 1019.41 64.0568 1020.59 64.0568C1020.81 64.0568 1021.09 64.0611 1021.42 64.0696C1021.75 64.0781 1022 64.0909 1022.17 64.108V67.1761C1022.07 67.1506 1021.84 67.1122 1021.47 67.0611C1021.11 67.0014 1020.73 66.9716 1020.33 66.9716C1019.38 66.9716 1018.53 67.1719 1017.78 67.5724C1017.03 67.9645 1016.45 68.5099 1016.01 69.2088C1015.59 69.8991 1015.37 70.6875 1015.37 71.5739V84H1012.36ZM1035.72 64.3636V66.9205H1025.14V64.3636H1035.72ZM1028.31 84V61.6534C1028.31 60.5284 1028.57 59.5909 1029.1 58.8409C1029.63 58.0909 1030.32 57.5284 1031.16 57.1534C1032 56.7784 1032.89 56.5909 1033.83 56.5909C1034.57 56.5909 1035.18 56.6506 1035.65 56.7699C1036.12 56.8892 1036.47 57 1036.7 57.1023L1035.83 59.7102C1035.67 59.6591 1035.46 59.5952 1035.19 59.5185C1034.92 59.4418 1034.57 59.4034 1034.14 59.4034C1033.14 59.4034 1032.42 59.6548 1031.98 60.1577C1031.54 60.6605 1031.33 61.3977 1031.33 62.3693V84H1028.31ZM1039.95 84V64.3636H1042.97V84H1039.95ZM1041.49 61.0909C1040.9 61.0909 1040.39 60.8906 1039.97 60.4901C1039.55 60.0895 1039.34 59.608 1039.34 59.0455C1039.34 58.483 1039.55 58.0014 1039.97 57.6009C1040.39 57.2003 1040.9 57 1041.49 57C1042.07 57 1042.58 57.2003 1043 57.6009C1043.42 58.0014 1043.63 58.483 1043.63 59.0455C1043.63 59.608 1043.42 60.0895 1043 60.4901C1042.58 60.8906 1042.07 61.0909 1041.49 61.0909ZM1051.51 57.8182V84H1048.5V57.8182H1051.51ZM1067.16 91.3636V64.3636H1070.08V67.483H1070.44C1070.66 67.142 1070.96 66.7074 1071.36 66.179C1071.76 65.642 1072.33 65.1648 1073.07 64.7472C1073.82 64.321 1074.83 64.108 1076.11 64.108C1077.77 64.108 1079.22 64.5213 1080.48 65.348C1081.75 66.1747 1082.73 67.3466 1083.44 68.8636C1084.15 70.3807 1084.5 72.1705 1084.5 74.233C1084.5 76.3125 1084.15 78.1151 1083.44 79.6406C1082.73 81.1577 1081.75 82.3338 1080.5 83.169C1079.24 83.9957 1077.8 84.4091 1076.16 84.4091C1074.9 84.4091 1073.89 84.2003 1073.13 83.7827C1072.38 83.3565 1071.79 82.875 1071.38 82.3381C1070.97 81.7926 1070.66 81.3409 1070.44 80.983H1070.18V91.3636H1067.16ZM1070.13 74.1818C1070.13 75.6648 1070.35 76.973 1070.78 78.1065C1071.22 79.2315 1071.85 80.1136 1072.69 80.7528C1073.52 81.3835 1074.54 81.6989 1075.75 81.6989C1077.02 81.6989 1078.07 81.3665 1078.91 80.7017C1079.76 80.0284 1080.4 79.125 1080.83 77.9915C1081.26 76.8494 1081.48 75.5795 1081.48 74.1818C1081.48 72.8011 1081.27 71.5568 1080.84 70.4489C1080.43 69.3324 1079.79 68.4503 1078.94 67.8026C1078.09 67.1463 1077.03 66.8182 1075.75 66.8182C1074.53 66.8182 1073.5 67.1293 1072.66 67.7514C1071.83 68.3651 1071.19 69.2259 1070.77 70.3338C1070.34 71.4332 1070.13 72.7159 1070.13 74.1818ZM1089.1 84V64.3636H1092.02V67.3295H1092.22C1092.58 66.358 1093.23 65.5696 1094.16 64.9645C1095.1 64.3594 1096.16 64.0568 1097.33 64.0568C1097.56 64.0568 1097.83 64.0611 1098.17 64.0696C1098.5 64.0781 1098.75 64.0909 1098.92 64.108V67.1761C1098.82 67.1506 1098.58 67.1122 1098.22 67.0611C1097.86 67.0014 1097.48 66.9716 1097.08 66.9716C1096.12 66.9716 1095.27 67.1719 1094.52 67.5724C1093.78 67.9645 1093.19 68.5099 1092.76 69.2088C1092.33 69.8991 1092.12 70.6875 1092.12 71.5739V84H1089.1ZM1109.88 84.4091C1108.1 84.4091 1106.55 83.9872 1105.21 83.1435C1103.88 82.2997 1102.84 81.1193 1102.09 79.6023C1101.35 78.0852 1100.98 76.3125 1100.98 74.2841C1100.98 72.2386 1101.35 70.4531 1102.09 68.9276C1102.84 67.402 1103.88 66.2173 1105.21 65.3736C1106.55 64.5298 1108.1 64.108 1109.88 64.108C1111.65 64.108 1113.2 64.5298 1114.53 65.3736C1115.87 66.2173 1116.91 67.402 1117.65 68.9276C1118.4 70.4531 1118.77 72.2386 1118.77 74.2841C1118.77 76.3125 1118.4 78.0852 1117.65 79.6023C1116.91 81.1193 1115.87 82.2997 1114.53 83.1435C1113.2 83.9872 1111.65 84.4091 1109.88 84.4091ZM1109.88 81.6989C1111.22 81.6989 1112.33 81.3537 1113.2 80.6634C1114.07 79.973 1114.71 79.0653 1115.13 77.9403C1115.55 76.8153 1115.76 75.5966 1115.76 74.2841C1115.76 72.9716 1115.55 71.7486 1115.13 70.6151C1114.71 69.4815 1114.07 68.5653 1113.2 67.8665C1112.33 67.1676 1111.22 66.8182 1109.88 66.8182C1108.53 66.8182 1107.42 67.1676 1106.55 67.8665C1105.68 68.5653 1105.04 69.4815 1104.62 70.6151C1104.2 71.7486 1103.99 72.9716 1103.99 74.2841C1103.99 75.5966 1104.2 76.8153 1104.62 77.9403C1105.04 79.0653 1105.68 79.973 1106.55 80.6634C1107.42 81.3537 1108.53 81.6989 1109.88 81.6989ZM1132.12 64.3636V66.9205H1121.54V64.3636H1132.12ZM1124.71 84V61.6534C1124.71 60.5284 1124.97 59.5909 1125.5 58.8409C1126.03 58.0909 1126.72 57.5284 1127.56 57.1534C1128.4 56.7784 1129.29 56.5909 1130.23 56.5909C1130.97 56.5909 1131.58 56.6506 1132.05 56.7699C1132.51 56.8892 1132.86 57 1133.09 57.1023L1132.23 59.7102C1132.07 59.6591 1131.86 59.5952 1131.59 59.5185C1131.32 59.4418 1130.97 59.4034 1130.54 59.4034C1129.54 59.4034 1128.82 59.6548 1128.38 60.1577C1127.94 60.6605 1127.73 61.3977 1127.73 62.3693V84H1124.71ZM1138.55 84.2045C1137.92 84.2045 1137.38 83.9787 1136.93 83.527C1136.47 83.0753 1136.25 82.5341 1136.25 81.9034C1136.25 81.2727 1136.47 80.7315 1136.93 80.2798C1137.38 79.8281 1137.92 79.6023 1138.55 79.6023C1139.18 79.6023 1139.72 79.8281 1140.17 80.2798C1140.63 80.7315 1140.85 81.2727 1140.85 81.9034C1140.85 82.321 1140.74 82.7045 1140.53 83.054C1140.33 83.4034 1140.05 83.6847 1139.7 83.8977C1139.36 84.1023 1138.98 84.2045 1138.55 84.2045ZM1138.55 69.6307C1137.92 69.6307 1137.38 69.4048 1136.93 68.9531C1136.47 68.5014 1136.25 67.9602 1136.25 67.3295C1136.25 66.6989 1136.47 66.1577 1136.93 65.706C1137.38 65.2543 1137.92 65.0284 1138.55 65.0284C1139.18 65.0284 1139.72 65.2543 1140.17 65.706C1140.63 66.1577 1140.85 66.6989 1140.85 67.3295C1140.85 67.7472 1140.74 68.1307 1140.53 68.4801C1140.33 68.8295 1140.05 69.1108 1139.7 69.3239C1139.36 69.5284 1138.98 69.6307 1138.55 69.6307Z" fill="black"/>
<rect x="26" y="237" width="1382" height="177" rx="16" fill="#FFFDFD"/>
<circle cx="124" cy="325" r="71" fill="#D9D9D9"/>
<path d="M179 369.5C134.2 331.9 87 353.833 69 369.5C81.8 384.7 93.5 390.462 110.5 394.5C123.833 397.667 156.2 397.1 179 369.5Z" fill="white"/>
<circle cx="124" cy="317" r="27" fill="white"/>
<path d="M251.409 291C251.097 290.044 250.685 289.187 250.173 288.429C249.671 287.662 249.07 287.009 248.369 286.469C247.678 285.929 246.892 285.517 246.011 285.233C245.131 284.949 244.165 284.807 243.114 284.807C241.39 284.807 239.823 285.252 238.412 286.142C237.001 287.032 235.879 288.344 235.045 290.077C234.212 291.81 233.795 293.936 233.795 296.455C233.795 298.973 234.217 301.099 235.06 302.832C235.902 304.565 237.044 305.877 238.483 306.767C239.922 307.657 241.542 308.102 243.341 308.102C245.008 308.102 246.475 307.747 247.744 307.037C249.023 306.317 250.017 305.304 250.727 303.997C251.447 302.681 251.807 301.133 251.807 299.352L252.886 299.58H244.136V296.455H255.216V299.58C255.216 301.975 254.705 304.059 253.682 305.83C252.669 307.6 251.267 308.973 249.477 309.949C247.697 310.915 245.652 311.398 243.341 311.398C240.765 311.398 238.502 310.792 236.551 309.58C234.61 308.367 233.095 306.644 232.006 304.409C230.926 302.174 230.386 299.523 230.386 296.455C230.386 294.153 230.694 292.084 231.31 290.247C231.935 288.401 232.815 286.829 233.952 285.531C235.088 284.234 236.433 283.24 237.986 282.548C239.539 281.857 241.248 281.511 243.114 281.511C244.648 281.511 246.078 281.743 247.403 282.207C248.739 282.662 249.927 283.311 250.969 284.153C252.02 284.987 252.896 285.986 253.597 287.151C254.297 288.306 254.78 289.589 255.045 291H251.409ZM274.545 302.08V289.182H277.897V311H274.545V307.307H274.317C273.806 308.415 273.011 309.357 271.931 310.134C270.852 310.901 269.488 311.284 267.84 311.284C266.477 311.284 265.264 310.986 264.204 310.389C263.143 309.783 262.31 308.874 261.704 307.662C261.098 306.44 260.795 304.902 260.795 303.045V289.182H264.147V302.818C264.147 304.409 264.592 305.678 265.482 306.625C266.382 307.572 267.528 308.045 268.92 308.045C269.753 308.045 270.601 307.832 271.462 307.406C272.334 306.98 273.063 306.327 273.65 305.446C274.246 304.565 274.545 303.443 274.545 302.08ZM284.037 311V289.182H287.389V311H284.037ZM285.741 285.545C285.088 285.545 284.525 285.323 284.051 284.878C283.587 284.433 283.355 283.898 283.355 283.273C283.355 282.648 283.587 282.113 284.051 281.668C284.525 281.223 285.088 281 285.741 281C286.395 281 286.954 281.223 287.418 281.668C287.891 282.113 288.128 282.648 288.128 283.273C288.128 283.898 287.891 284.433 287.418 284.878C286.954 285.323 286.395 285.545 285.741 285.545ZM296.881 281.909V311H293.529V281.909H296.881ZM306.374 297.875V311H303.021V281.909H306.374V292.591H306.658C307.169 291.464 307.936 290.569 308.959 289.906C309.991 289.234 311.364 288.898 313.078 288.898C314.565 288.898 315.867 289.196 316.984 289.793C318.102 290.38 318.968 291.284 319.584 292.506C320.209 293.718 320.521 295.261 320.521 297.136V311H317.169V297.364C317.169 295.631 316.719 294.291 315.82 293.344C314.929 292.387 313.694 291.909 312.112 291.909C311.014 291.909 310.029 292.141 309.158 292.605C308.296 293.069 307.614 293.746 307.112 294.636C306.62 295.527 306.374 296.606 306.374 297.875ZM335.802 311.455C333.7 311.455 331.886 310.991 330.362 310.062C328.846 309.125 327.677 307.818 326.853 306.142C326.039 304.456 325.631 302.496 325.631 300.261C325.631 298.027 326.039 296.057 326.853 294.352C327.677 292.638 328.823 291.303 330.29 290.347C331.768 289.381 333.491 288.898 335.461 288.898C336.597 288.898 337.719 289.087 338.827 289.466C339.935 289.845 340.944 290.46 341.853 291.312C342.762 292.155 343.487 293.273 344.026 294.665C344.566 296.057 344.836 297.771 344.836 299.807V301.227H328.018V298.33H341.427C341.427 297.098 341.181 296 340.688 295.034C340.205 294.068 339.514 293.306 338.614 292.747C337.724 292.188 336.673 291.909 335.461 291.909C334.126 291.909 332.97 292.241 331.995 292.903C331.029 293.557 330.286 294.409 329.765 295.46C329.244 296.511 328.984 297.638 328.984 298.841V300.773C328.984 302.42 329.268 303.817 329.836 304.963C330.414 306.099 331.214 306.966 332.237 307.562C333.259 308.15 334.448 308.443 335.802 308.443C336.683 308.443 337.478 308.32 338.188 308.074C338.908 307.818 339.528 307.439 340.049 306.938C340.57 306.426 340.972 305.792 341.256 305.034L344.495 305.943C344.154 307.042 343.581 308.008 342.776 308.841C341.971 309.665 340.977 310.309 339.793 310.773C338.61 311.227 337.279 311.455 335.802 311.455ZM349.935 311V289.182H353.174V292.477H353.401C353.799 291.398 354.519 290.522 355.56 289.849C356.602 289.177 357.776 288.841 359.083 288.841C359.329 288.841 359.637 288.846 360.006 288.855C360.376 288.865 360.655 288.879 360.844 288.898V292.307C360.731 292.278 360.47 292.236 360.063 292.179C359.665 292.113 359.244 292.08 358.799 292.08C357.738 292.08 356.791 292.302 355.958 292.747C355.134 293.183 354.481 293.789 353.998 294.565C353.524 295.332 353.288 296.208 353.288 297.193V311H349.935ZM364.818 311V289.182H368.057V292.591H368.341C368.795 291.426 369.529 290.522 370.543 289.878C371.556 289.224 372.773 288.898 374.193 288.898C375.633 288.898 376.83 289.224 377.787 289.878C378.753 290.522 379.506 291.426 380.045 292.591H380.273C380.831 291.464 381.67 290.569 382.787 289.906C383.904 289.234 385.244 288.898 386.807 288.898C388.758 288.898 390.353 289.509 391.594 290.73C392.834 291.942 393.455 293.831 393.455 296.398V311H390.102V296.398C390.102 294.788 389.662 293.637 388.781 292.946C387.901 292.255 386.864 291.909 385.67 291.909C384.136 291.909 382.948 292.373 382.105 293.301C381.262 294.22 380.841 295.384 380.841 296.795V311H377.432V296.057C377.432 294.816 377.029 293.817 376.224 293.06C375.42 292.293 374.383 291.909 373.114 291.909C372.242 291.909 371.428 292.141 370.67 292.605C369.922 293.069 369.316 293.713 368.852 294.537C368.398 295.351 368.17 296.294 368.17 297.364V311H364.818ZM408.732 311.455C406.629 311.455 404.816 310.991 403.291 310.062C401.776 309.125 400.607 307.818 399.783 306.142C398.968 304.456 398.561 302.496 398.561 300.261C398.561 298.027 398.968 296.057 399.783 294.352C400.607 292.638 401.752 291.303 403.22 290.347C404.697 289.381 406.421 288.898 408.391 288.898C409.527 288.898 410.649 289.087 411.757 289.466C412.865 289.845 413.874 290.46 414.783 291.312C415.692 292.155 416.416 293.273 416.956 294.665C417.496 296.057 417.766 297.771 417.766 299.807V301.227H400.947V298.33H414.357C414.357 297.098 414.11 296 413.618 295.034C413.135 294.068 412.444 293.306 411.544 292.747C410.654 292.188 409.603 291.909 408.391 291.909C407.055 291.909 405.9 292.241 404.925 292.903C403.959 293.557 403.215 294.409 402.695 295.46C402.174 296.511 401.913 297.638 401.913 298.841V300.773C401.913 302.42 402.197 303.817 402.766 304.963C403.343 306.099 404.143 306.966 405.166 307.562C406.189 308.15 407.377 308.443 408.732 308.443C409.612 308.443 410.408 308.32 411.118 308.074C411.838 307.818 412.458 307.439 412.979 306.938C413.5 306.426 413.902 305.792 414.186 305.034L417.425 305.943C417.084 307.042 416.511 308.008 415.706 308.841C414.901 309.665 413.907 310.309 412.723 310.773C411.539 311.227 410.209 311.455 408.732 311.455Z" fill="black"/>
<path d="M231.17 365V338.818H246.972V341.631H234.341V350.477H246.153V353.29H234.341V362.188H247.176V365H231.17ZM255.294 353.188V365H252.277V345.364H255.192V348.432H255.447C255.908 347.435 256.607 346.634 257.544 346.028C258.482 345.415 259.692 345.108 261.175 345.108C262.504 345.108 263.668 345.381 264.665 345.926C265.662 346.463 266.438 347.281 266.991 348.381C267.545 349.472 267.822 350.852 267.822 352.523V365H264.805V352.727C264.805 351.185 264.405 349.983 263.604 349.122C262.803 348.253 261.703 347.818 260.305 347.818C259.342 347.818 258.482 348.027 257.723 348.445C256.973 348.862 256.381 349.472 255.946 350.273C255.511 351.074 255.294 352.045 255.294 353.188ZM281.262 372.773C279.804 372.773 278.551 372.585 277.503 372.21C276.455 371.844 275.581 371.358 274.882 370.753C274.192 370.156 273.642 369.517 273.233 368.835L275.637 367.148C275.909 367.506 276.255 367.915 276.672 368.375C277.09 368.844 277.661 369.249 278.385 369.589C279.118 369.939 280.077 370.114 281.262 370.114C282.847 370.114 284.155 369.73 285.186 368.963C286.218 368.196 286.733 366.994 286.733 365.358V361.369H286.478C286.256 361.727 285.941 362.17 285.532 362.699C285.131 363.219 284.551 363.683 283.793 364.092C283.043 364.493 282.029 364.693 280.75 364.693C279.165 364.693 277.742 364.318 276.48 363.568C275.228 362.818 274.235 361.727 273.502 360.295C272.777 358.864 272.415 357.125 272.415 355.08C272.415 353.068 272.769 351.317 273.476 349.825C274.184 348.325 275.168 347.166 276.429 346.348C277.691 345.521 279.148 345.108 280.801 345.108C282.08 345.108 283.094 345.321 283.844 345.747C284.603 346.165 285.182 346.642 285.583 347.179C285.992 347.707 286.307 348.142 286.529 348.483H286.836V345.364H289.75V365.562C289.75 367.25 289.367 368.622 288.6 369.679C287.841 370.744 286.819 371.524 285.532 372.018C284.253 372.521 282.83 372.773 281.262 372.773ZM281.159 361.983C282.37 361.983 283.392 361.706 284.228 361.152C285.063 360.598 285.698 359.801 286.132 358.761C286.567 357.722 286.784 356.477 286.784 355.028C286.784 353.614 286.571 352.365 286.145 351.283C285.719 350.2 285.088 349.352 284.253 348.739C283.418 348.125 282.387 347.818 281.159 347.818C279.881 347.818 278.816 348.142 277.963 348.79C277.12 349.437 276.485 350.307 276.059 351.398C275.641 352.489 275.432 353.699 275.432 355.028C275.432 356.392 275.645 357.598 276.071 358.646C276.506 359.686 277.145 360.504 277.989 361.101C278.841 361.689 279.898 361.983 281.159 361.983ZM297.472 365.205C296.841 365.205 296.3 364.979 295.848 364.527C295.397 364.075 295.171 363.534 295.171 362.903C295.171 362.273 295.397 361.732 295.848 361.28C296.3 360.828 296.841 360.602 297.472 360.602C298.103 360.602 298.644 360.828 299.096 361.28C299.547 361.732 299.773 362.273 299.773 362.903C299.773 363.321 299.667 363.705 299.453 364.054C299.249 364.403 298.972 364.685 298.623 364.898C298.282 365.102 297.898 365.205 297.472 365.205ZM336.789 347H333.619C333.431 346.088 333.103 345.287 332.635 344.597C332.174 343.906 331.612 343.327 330.947 342.858C330.291 342.381 329.562 342.023 328.761 341.784C327.96 341.545 327.125 341.426 326.255 341.426C324.67 341.426 323.234 341.827 321.947 342.628C320.669 343.429 319.65 344.609 318.892 346.169C318.142 347.729 317.767 349.642 317.767 351.909C317.767 354.176 318.142 356.089 318.892 357.649C319.65 359.209 320.669 360.389 321.947 361.19C323.234 361.991 324.67 362.392 326.255 362.392C327.125 362.392 327.96 362.273 328.761 362.034C329.562 361.795 330.291 361.442 330.947 360.973C331.612 360.496 332.174 359.912 332.635 359.222C333.103 358.523 333.431 357.722 333.619 356.818H336.789C336.551 358.156 336.116 359.354 335.485 360.411C334.855 361.467 334.071 362.366 333.133 363.108C332.196 363.841 331.143 364.399 329.975 364.783C328.816 365.166 327.576 365.358 326.255 365.358C324.022 365.358 322.037 364.812 320.298 363.722C318.559 362.631 317.191 361.08 316.194 359.068C315.197 357.057 314.699 354.67 314.699 351.909C314.699 349.148 315.197 346.761 316.194 344.75C317.191 342.739 318.559 341.188 320.298 340.097C322.037 339.006 324.022 338.46 326.255 338.46C327.576 338.46 328.816 338.652 329.975 339.036C331.143 339.419 332.196 339.982 333.133 340.723C334.071 341.456 334.855 342.351 335.485 343.408C336.116 344.456 336.551 345.653 336.789 347ZM349.481 365.409C347.708 365.409 346.153 364.987 344.815 364.143C343.485 363.3 342.445 362.119 341.695 360.602C340.954 359.085 340.583 357.312 340.583 355.284C340.583 353.239 340.954 351.453 341.695 349.928C342.445 348.402 343.485 347.217 344.815 346.374C346.153 345.53 347.708 345.108 349.481 345.108C351.254 345.108 352.805 345.53 354.134 346.374C355.472 347.217 356.512 348.402 357.254 349.928C358.004 351.453 358.379 353.239 358.379 355.284C358.379 357.312 358.004 359.085 357.254 360.602C356.512 362.119 355.472 363.3 354.134 364.143C352.805 364.987 351.254 365.409 349.481 365.409ZM349.481 362.699C350.827 362.699 351.935 362.354 352.805 361.663C353.674 360.973 354.317 360.065 354.735 358.94C355.153 357.815 355.362 356.597 355.362 355.284C355.362 353.972 355.153 352.749 354.735 351.615C354.317 350.482 353.674 349.565 352.805 348.866C351.935 348.168 350.827 347.818 349.481 347.818C348.134 347.818 347.026 348.168 346.157 348.866C345.288 349.565 344.644 350.482 344.227 351.615C343.809 352.749 343.6 353.972 343.6 355.284C343.6 356.597 343.809 357.815 344.227 358.94C344.644 360.065 345.288 360.973 346.157 361.663C347.026 362.354 348.134 362.699 349.481 362.699ZM362.984 365V345.364H365.899V348.432H366.154C366.564 347.384 367.224 346.57 368.136 345.99C369.048 345.402 370.143 345.108 371.422 345.108C372.717 345.108 373.795 345.402 374.656 345.99C375.525 346.57 376.203 347.384 376.689 348.432H376.893C377.396 347.418 378.15 346.612 379.156 346.016C380.162 345.411 381.368 345.108 382.774 345.108C384.529 345.108 385.966 345.658 387.082 346.757C388.199 347.848 388.757 349.548 388.757 351.858V365H385.74V351.858C385.74 350.409 385.343 349.374 384.551 348.751C383.758 348.129 382.825 347.818 381.751 347.818C380.37 347.818 379.301 348.236 378.542 349.071C377.784 349.898 377.404 350.946 377.404 352.216V365H374.336V351.551C374.336 350.435 373.974 349.536 373.25 348.854C372.525 348.163 371.592 347.818 370.45 347.818C369.666 347.818 368.933 348.027 368.251 348.445C367.578 348.862 367.032 349.442 366.615 350.183C366.206 350.916 366.001 351.764 366.001 352.727V365H362.984ZM394.273 372.364V345.364H397.188V348.483H397.546C397.767 348.142 398.074 347.707 398.466 347.179C398.867 346.642 399.438 346.165 400.179 345.747C400.929 345.321 401.944 345.108 403.222 345.108C404.875 345.108 406.333 345.521 407.594 346.348C408.855 347.175 409.84 348.347 410.547 349.864C411.255 351.381 411.608 353.17 411.608 355.233C411.608 357.312 411.255 359.115 410.547 360.641C409.84 362.158 408.86 363.334 407.607 364.169C406.354 364.996 404.909 365.409 403.273 365.409C402.012 365.409 401.002 365.2 400.243 364.783C399.485 364.357 398.901 363.875 398.492 363.338C398.083 362.793 397.767 362.341 397.546 361.983H397.29V372.364H394.273ZM397.239 355.182C397.239 356.665 397.456 357.973 397.891 359.107C398.326 360.232 398.961 361.114 399.796 361.753C400.631 362.384 401.654 362.699 402.864 362.699C404.125 362.699 405.178 362.366 406.022 361.702C406.874 361.028 407.513 360.125 407.939 358.991C408.374 357.849 408.591 356.58 408.591 355.182C408.591 353.801 408.378 352.557 407.952 351.449C407.534 350.332 406.9 349.45 406.047 348.803C405.203 348.146 404.142 347.818 402.864 347.818C401.637 347.818 400.605 348.129 399.77 348.751C398.935 349.365 398.304 350.226 397.878 351.334C397.452 352.433 397.239 353.716 397.239 355.182ZM428.586 356.972V345.364H431.603V365H428.586V361.676H428.381C427.921 362.673 427.205 363.521 426.233 364.22C425.262 364.911 424.034 365.256 422.551 365.256C421.324 365.256 420.233 364.987 419.279 364.45C418.324 363.905 417.574 363.087 417.029 361.996C416.483 360.896 416.211 359.511 416.211 357.841V345.364H419.228V357.636C419.228 359.068 419.628 360.21 420.429 361.062C421.239 361.915 422.27 362.341 423.523 362.341C424.273 362.341 425.036 362.149 425.811 361.766C426.596 361.382 427.252 360.794 427.78 360.001C428.317 359.209 428.586 358.199 428.586 356.972ZM445.668 345.364V347.92H435.492V345.364H445.668ZM438.458 340.659H441.475V359.375C441.475 360.227 441.599 360.866 441.846 361.293C442.102 361.71 442.425 361.991 442.817 362.136C443.218 362.273 443.64 362.341 444.083 362.341C444.415 362.341 444.688 362.324 444.901 362.29C445.114 362.247 445.285 362.213 445.413 362.188L446.026 364.898C445.822 364.974 445.536 365.051 445.17 365.128C444.803 365.213 444.339 365.256 443.776 365.256C442.924 365.256 442.089 365.072 441.271 364.706C440.461 364.339 439.788 363.781 439.251 363.031C438.722 362.281 438.458 361.335 438.458 360.193V340.659ZM455.985 365.46C454.741 365.46 453.612 365.226 452.597 364.757C451.583 364.28 450.778 363.594 450.181 362.699C449.585 361.795 449.286 360.705 449.286 359.426C449.286 358.301 449.508 357.389 449.951 356.69C450.394 355.983 450.987 355.429 451.728 355.028C452.469 354.628 453.288 354.33 454.183 354.134C455.086 353.929 455.994 353.767 456.906 353.648C458.099 353.494 459.066 353.379 459.808 353.303C460.558 353.217 461.103 353.077 461.444 352.881C461.793 352.685 461.968 352.344 461.968 351.858V351.756C461.968 350.494 461.623 349.514 460.933 348.815C460.251 348.116 459.215 347.767 457.826 347.767C456.386 347.767 455.256 348.082 454.438 348.713C453.62 349.344 453.045 350.017 452.712 350.733L449.849 349.71C450.36 348.517 451.042 347.588 451.894 346.923C452.755 346.25 453.692 345.781 454.707 345.517C455.729 345.244 456.735 345.108 457.724 345.108C458.354 345.108 459.079 345.185 459.897 345.338C460.724 345.483 461.521 345.786 462.288 346.246C463.063 346.706 463.707 347.401 464.218 348.33C464.729 349.259 464.985 350.503 464.985 352.062V365H461.968V362.341H461.815C461.61 362.767 461.269 363.223 460.792 363.709C460.315 364.195 459.68 364.608 458.887 364.949C458.094 365.29 457.127 365.46 455.985 365.46ZM456.445 362.75C457.638 362.75 458.644 362.516 459.462 362.047C460.289 361.578 460.911 360.973 461.329 360.232C461.755 359.49 461.968 358.71 461.968 357.892V355.131C461.84 355.284 461.559 355.425 461.124 355.553C460.698 355.672 460.204 355.778 459.641 355.872C459.087 355.957 458.546 356.034 458.018 356.102C457.498 356.162 457.076 356.213 456.752 356.256C455.968 356.358 455.235 356.524 454.553 356.754C453.88 356.976 453.335 357.312 452.917 357.764C452.508 358.207 452.303 358.812 452.303 359.58C452.303 360.628 452.691 361.42 453.467 361.957C454.251 362.486 455.244 362.75 456.445 362.75ZM478.469 365.409C476.628 365.409 475.043 364.974 473.713 364.105C472.384 363.236 471.361 362.038 470.645 360.513C469.929 358.987 469.571 357.244 469.571 355.284C469.571 353.29 469.938 351.53 470.671 350.004C471.412 348.47 472.444 347.273 473.765 346.412C475.094 345.543 476.645 345.108 478.418 345.108C479.799 345.108 481.043 345.364 482.151 345.875C483.259 346.386 484.167 347.102 484.874 348.023C485.581 348.943 486.02 350.017 486.191 351.244H483.174C482.944 350.349 482.432 349.557 481.64 348.866C480.855 348.168 479.799 347.818 478.469 347.818C477.293 347.818 476.262 348.125 475.375 348.739C474.498 349.344 473.811 350.2 473.317 351.308C472.831 352.408 472.588 353.699 472.588 355.182C472.588 356.699 472.827 358.02 473.304 359.145C473.79 360.27 474.472 361.143 475.35 361.766C476.236 362.388 477.276 362.699 478.469 362.699C479.253 362.699 479.965 362.562 480.604 362.29C481.243 362.017 481.784 361.625 482.228 361.114C482.671 360.602 482.986 359.989 483.174 359.273H486.191C486.02 360.432 485.598 361.476 484.925 362.405C484.26 363.325 483.378 364.058 482.279 364.604C481.188 365.141 479.918 365.409 478.469 365.409ZM477.037 364.898H479.543L479.338 365.92C480.003 366.023 480.613 366.3 481.167 366.751C481.721 367.212 481.998 367.94 481.998 368.938C481.998 370.037 481.542 370.932 480.63 371.622C479.726 372.321 478.392 372.67 476.628 372.67L476.526 370.676C477.319 370.676 477.975 370.548 478.495 370.293C479.023 370.045 479.287 369.628 479.287 369.04C479.287 368.452 479.07 368.051 478.635 367.838C478.201 367.625 477.498 367.48 476.526 367.403L477.037 364.898ZM496.38 365.46C495.135 365.46 494.006 365.226 492.992 364.757C491.978 364.28 491.172 363.594 490.576 362.699C489.979 361.795 489.681 360.705 489.681 359.426C489.681 358.301 489.902 357.389 490.346 356.69C490.789 355.983 491.381 355.429 492.123 355.028C492.864 354.628 493.682 354.33 494.577 354.134C495.48 353.929 496.388 353.767 497.3 353.648C498.493 353.494 499.461 353.379 500.202 353.303C500.952 353.217 501.498 353.077 501.838 352.881C502.188 352.685 502.363 352.344 502.363 351.858V351.756C502.363 350.494 502.017 349.514 501.327 348.815C500.645 348.116 499.61 347.767 498.221 347.767C496.78 347.767 495.651 348.082 494.833 348.713C494.015 349.344 493.439 350.017 493.107 350.733L490.243 349.71C490.755 348.517 491.436 347.588 492.289 346.923C493.15 346.25 494.087 345.781 495.101 345.517C496.124 345.244 497.13 345.108 498.118 345.108C498.749 345.108 499.473 345.185 500.292 345.338C501.118 345.483 501.915 345.786 502.682 346.246C503.458 346.706 504.101 347.401 504.613 348.33C505.124 349.259 505.38 350.503 505.38 352.062V365H502.363V362.341H502.209C502.005 362.767 501.664 363.223 501.186 363.709C500.709 364.195 500.074 364.608 499.282 364.949C498.489 365.29 497.522 365.46 496.38 365.46ZM496.84 362.75C498.033 362.75 499.039 362.516 499.857 362.047C500.684 361.578 501.306 360.973 501.723 360.232C502.15 359.49 502.363 358.71 502.363 357.892V355.131C502.235 355.284 501.953 355.425 501.519 355.553C501.093 355.672 500.598 355.778 500.036 355.872C499.482 355.957 498.941 356.034 498.412 356.102C497.892 356.162 497.471 356.213 497.147 356.256C496.363 356.358 495.63 356.524 494.948 356.754C494.275 356.976 493.729 357.312 493.311 357.764C492.902 358.207 492.698 358.812 492.698 359.58C492.698 360.628 493.086 361.42 493.861 361.957C494.645 362.486 495.638 362.75 496.84 362.75ZM494.385 343.011L492.033 342.909C492.033 341.605 492.404 340.54 493.145 339.713C493.895 338.878 494.82 338.46 495.919 338.46C496.405 338.46 496.836 338.545 497.211 338.716C497.586 338.878 497.944 339.065 498.284 339.278C498.625 339.491 498.975 339.683 499.333 339.854C499.699 340.016 500.113 340.097 500.573 340.097C501.059 340.097 501.468 339.909 501.8 339.534C502.141 339.151 502.311 338.69 502.311 338.153L504.613 338.358C504.613 339.687 504.238 340.744 503.488 341.528C502.746 342.312 501.826 342.705 500.726 342.705C500.138 342.705 499.652 342.624 499.269 342.462C498.885 342.291 498.544 342.099 498.246 341.886C497.948 341.673 497.632 341.486 497.3 341.324C496.968 341.153 496.559 341.068 496.073 341.068C495.587 341.068 495.182 341.26 494.858 341.643C494.543 342.018 494.385 342.474 494.385 343.011ZM518.864 365.409C517.091 365.409 515.536 364.987 514.197 364.143C512.868 363.3 511.828 362.119 511.078 360.602C510.337 359.085 509.966 357.312 509.966 355.284C509.966 353.239 510.337 351.453 511.078 349.928C511.828 348.402 512.868 347.217 514.197 346.374C515.536 345.53 517.091 345.108 518.864 345.108C520.636 345.108 522.188 345.53 523.517 346.374C524.855 347.217 525.895 348.402 526.636 349.928C527.386 351.453 527.761 353.239 527.761 355.284C527.761 357.312 527.386 359.085 526.636 360.602C525.895 362.119 524.855 363.3 523.517 364.143C522.188 364.987 520.636 365.409 518.864 365.409ZM518.864 362.699C520.21 362.699 521.318 362.354 522.188 361.663C523.057 360.973 523.7 360.065 524.118 358.94C524.536 357.815 524.744 356.597 524.744 355.284C524.744 353.972 524.536 352.749 524.118 351.615C523.7 350.482 523.057 349.565 522.188 348.866C521.318 348.168 520.21 347.818 518.864 347.818C517.517 347.818 516.409 348.168 515.54 348.866C514.67 349.565 514.027 350.482 513.609 351.615C513.192 352.749 512.983 353.972 512.983 355.284C512.983 356.597 513.192 357.815 513.609 358.94C514.027 360.065 514.67 360.973 515.54 361.663C516.409 362.354 517.517 362.699 518.864 362.699Z" fill="black"/>
<g clip-path="url(#clip2_109_178)">
<path d="M1003.5 311L1011.92 336.912H1039.16L1017.12 352.926L1025.54 378.838L1003.5 362.824L981.458 378.838L989.877 352.926L967.835 336.912H995.081L1003.5 311Z" fill="#EFD404"/>
<path d="M1088.5 311L1096.92 336.912H1124.16L1102.12 352.926L1110.54 378.838L1088.5 362.824L1066.46 378.838L1074.88 352.926L1052.84 336.912H1080.08L1088.5 311Z" fill="#EFD404"/>
<path d="M1173.5 311L1181.92 336.912H1209.16L1187.12 352.926L1195.54 378.838L1173.5 362.824L1151.46 378.838L1159.88 352.926L1137.84 336.912H1165.08L1173.5 311Z" fill="#EFD404"/>
<path d="M1258.5 311L1266.92 336.912H1294.16L1272.12 352.926L1280.54 378.838L1258.5 362.824L1236.46 378.838L1244.88 352.926L1222.84 336.912H1250.08L1258.5 311Z" fill="#EFD404"/>
<path d="M1343.5 311L1351.92 336.912H1379.16L1357.12 352.926L1365.54 378.838L1343.5 362.824L1321.46 378.838L1329.88 352.926L1307.84 336.912H1335.08L1343.5 311Z" fill="#D6D6D6"/>
<g clip-path="url(#clip3_109_178)">
<path d="M1343.5 311L1351.92 336.912H1379.16L1357.12 352.926L1365.54 378.838L1343.5 362.824L1321.46 378.838L1329.88 352.926L1307.84 336.912H1335.08L1343.5 311Z" fill="#EFD404"/>
</g>
</g>
<path d="M969.17 295V268.818H978.017C980.071 268.818 981.75 269.189 983.054 269.93C984.366 270.663 985.338 271.656 985.969 272.909C986.599 274.162 986.915 275.56 986.915 277.102C986.915 278.645 986.599 280.047 985.969 281.308C985.347 282.57 984.384 283.575 983.08 284.325C981.776 285.067 980.105 285.438 978.068 285.438H971.727V282.625H977.966C979.372 282.625 980.501 282.382 981.354 281.896C982.206 281.411 982.824 280.754 983.207 279.928C983.599 279.092 983.795 278.151 983.795 277.102C983.795 276.054 983.599 275.116 983.207 274.29C982.824 273.463 982.202 272.815 981.341 272.347C980.48 271.869 979.338 271.631 977.915 271.631H972.341V295H969.17ZM999.635 295.409C997.743 295.409 996.111 294.991 994.739 294.156C993.375 293.312 992.322 292.136 991.581 290.628C990.848 289.111 990.482 287.347 990.482 285.335C990.482 283.324 990.848 281.551 991.581 280.017C992.322 278.474 993.354 277.273 994.675 276.412C996.004 275.543 997.555 275.108 999.328 275.108C1000.35 275.108 1001.36 275.278 1002.36 275.619C1003.36 275.96 1004.26 276.514 1005.08 277.281C1005.9 278.04 1006.55 279.045 1007.04 280.298C1007.52 281.551 1007.77 283.094 1007.77 284.926V286.205H992.629V283.597H1004.7C1004.7 282.489 1004.48 281.5 1004.03 280.631C1003.6 279.761 1002.98 279.075 1002.17 278.572C1001.37 278.07 1000.42 277.818 999.328 277.818C998.126 277.818 997.087 278.116 996.209 278.713C995.339 279.301 994.67 280.068 994.202 281.014C993.733 281.96 993.499 282.974 993.499 284.057V285.795C993.499 287.278 993.754 288.536 994.266 289.567C994.786 290.589 995.506 291.369 996.426 291.906C997.347 292.435 998.416 292.699 999.635 292.699C1000.43 292.699 1001.14 292.588 1001.78 292.366C1002.43 292.136 1002.99 291.795 1003.46 291.344C1003.93 290.884 1004.29 290.312 1004.54 289.631L1007.46 290.449C1007.15 291.438 1006.64 292.307 1005.91 293.057C1005.19 293.798 1004.29 294.378 1003.23 294.795C1002.16 295.205 1000.96 295.409 999.635 295.409ZM1012.36 295V275.364H1015.27V278.33H1015.47C1015.83 277.358 1016.48 276.57 1017.42 275.964C1018.36 275.359 1019.41 275.057 1020.59 275.057C1020.81 275.057 1021.09 275.061 1021.42 275.07C1021.75 275.078 1022 275.091 1022.17 275.108V278.176C1022.07 278.151 1021.84 278.112 1021.47 278.061C1021.11 278.001 1020.73 277.972 1020.33 277.972C1019.38 277.972 1018.53 278.172 1017.78 278.572C1017.03 278.964 1016.45 279.51 1016.01 280.209C1015.59 280.899 1015.37 281.687 1015.37 282.574V295H1012.36ZM1035.72 275.364V277.92H1025.14V275.364H1035.72ZM1028.31 295V272.653C1028.31 271.528 1028.57 270.591 1029.1 269.841C1029.63 269.091 1030.32 268.528 1031.16 268.153C1032 267.778 1032.89 267.591 1033.83 267.591C1034.57 267.591 1035.18 267.651 1035.65 267.77C1036.12 267.889 1036.47 268 1036.7 268.102L1035.83 270.71C1035.67 270.659 1035.46 270.595 1035.19 270.518C1034.92 270.442 1034.57 270.403 1034.14 270.403C1033.14 270.403 1032.42 270.655 1031.98 271.158C1031.54 271.661 1031.33 272.398 1031.33 273.369V295H1028.31ZM1039.95 295V275.364H1042.97V295H1039.95ZM1041.49 272.091C1040.9 272.091 1040.39 271.891 1039.97 271.49C1039.55 271.089 1039.34 270.608 1039.34 270.045C1039.34 269.483 1039.55 269.001 1039.97 268.601C1040.39 268.2 1040.9 268 1041.49 268C1042.07 268 1042.58 268.2 1043 268.601C1043.42 269.001 1043.63 269.483 1043.63 270.045C1043.63 270.608 1043.42 271.089 1043 271.49C1042.58 271.891 1042.07 272.091 1041.49 272.091ZM1051.51 268.818V295H1048.5V268.818H1051.51ZM1067.16 302.364V275.364H1070.08V278.483H1070.44C1070.66 278.142 1070.96 277.707 1071.36 277.179C1071.76 276.642 1072.33 276.165 1073.07 275.747C1073.82 275.321 1074.83 275.108 1076.11 275.108C1077.77 275.108 1079.22 275.521 1080.48 276.348C1081.75 277.175 1082.73 278.347 1083.44 279.864C1084.15 281.381 1084.5 283.17 1084.5 285.233C1084.5 287.312 1084.15 289.115 1083.44 290.641C1082.73 292.158 1081.75 293.334 1080.5 294.169C1079.24 294.996 1077.8 295.409 1076.16 295.409C1074.9 295.409 1073.89 295.2 1073.13 294.783C1072.38 294.357 1071.79 293.875 1071.38 293.338C1070.97 292.793 1070.66 292.341 1070.44 291.983H1070.18V302.364H1067.16ZM1070.13 285.182C1070.13 286.665 1070.35 287.973 1070.78 289.107C1071.22 290.232 1071.85 291.114 1072.69 291.753C1073.52 292.384 1074.54 292.699 1075.75 292.699C1077.02 292.699 1078.07 292.366 1078.91 291.702C1079.76 291.028 1080.4 290.125 1080.83 288.991C1081.26 287.849 1081.48 286.58 1081.48 285.182C1081.48 283.801 1081.27 282.557 1080.84 281.449C1080.43 280.332 1079.79 279.45 1078.94 278.803C1078.09 278.146 1077.03 277.818 1075.75 277.818C1074.53 277.818 1073.5 278.129 1072.66 278.751C1071.83 279.365 1071.19 280.226 1070.77 281.334C1070.34 282.433 1070.13 283.716 1070.13 285.182ZM1089.1 295V275.364H1092.02V278.33H1092.22C1092.58 277.358 1093.23 276.57 1094.16 275.964C1095.1 275.359 1096.16 275.057 1097.33 275.057C1097.56 275.057 1097.83 275.061 1098.17 275.07C1098.5 275.078 1098.75 275.091 1098.92 275.108V278.176C1098.82 278.151 1098.58 278.112 1098.22 278.061C1097.86 278.001 1097.48 277.972 1097.08 277.972C1096.12 277.972 1095.27 278.172 1094.52 278.572C1093.78 278.964 1093.19 279.51 1092.76 280.209C1092.33 280.899 1092.12 281.687 1092.12 282.574V295H1089.1ZM1109.88 295.409C1108.1 295.409 1106.55 294.987 1105.21 294.143C1103.88 293.3 1102.84 292.119 1102.09 290.602C1101.35 289.085 1100.98 287.312 1100.98 285.284C1100.98 283.239 1101.35 281.453 1102.09 279.928C1102.84 278.402 1103.88 277.217 1105.21 276.374C1106.55 275.53 1108.1 275.108 1109.88 275.108C1111.65 275.108 1113.2 275.53 1114.53 276.374C1115.87 277.217 1116.91 278.402 1117.65 279.928C1118.4 281.453 1118.77 283.239 1118.77 285.284C1118.77 287.312 1118.4 289.085 1117.65 290.602C1116.91 292.119 1115.87 293.3 1114.53 294.143C1113.2 294.987 1111.65 295.409 1109.88 295.409ZM1109.88 292.699C1111.22 292.699 1112.33 292.354 1113.2 291.663C1114.07 290.973 1114.71 290.065 1115.13 288.94C1115.55 287.815 1115.76 286.597 1115.76 285.284C1115.76 283.972 1115.55 282.749 1115.13 281.615C1114.71 280.482 1114.07 279.565 1113.2 278.866C1112.33 278.168 1111.22 277.818 1109.88 277.818C1108.53 277.818 1107.42 278.168 1106.55 278.866C1105.68 279.565 1105.04 280.482 1104.62 281.615C1104.2 282.749 1103.99 283.972 1103.99 285.284C1103.99 286.597 1104.2 287.815 1104.62 288.94C1105.04 290.065 1105.68 290.973 1106.55 291.663C1107.42 292.354 1108.53 292.699 1109.88 292.699ZM1132.12 275.364V277.92H1121.54V275.364H1132.12ZM1124.71 295V272.653C1124.71 271.528 1124.97 270.591 1125.5 269.841C1126.03 269.091 1126.72 268.528 1127.56 268.153C1128.4 267.778 1129.29 267.591 1130.23 267.591C1130.97 267.591 1131.58 267.651 1132.05 267.77C1132.51 267.889 1132.86 268 1133.09 268.102L1132.23 270.71C1132.07 270.659 1131.86 270.595 1131.59 270.518C1131.32 270.442 1130.97 270.403 1130.54 270.403C1129.54 270.403 1128.82 270.655 1128.38 271.158C1127.94 271.661 1127.73 272.398 1127.73 273.369V295H1124.71ZM1138.55 295.205C1137.92 295.205 1137.38 294.979 1136.93 294.527C1136.47 294.075 1136.25 293.534 1136.25 292.903C1136.25 292.273 1136.47 291.732 1136.93 291.28C1137.38 290.828 1137.92 290.602 1138.55 290.602C1139.18 290.602 1139.72 290.828 1140.17 291.28C1140.63 291.732 1140.85 292.273 1140.85 292.903C1140.85 293.321 1140.74 293.705 1140.53 294.054C1140.33 294.403 1140.05 294.685 1139.7 294.898C1139.36 295.102 1138.98 295.205 1138.55 295.205ZM1138.55 280.631C1137.92 280.631 1137.38 280.405 1136.93 279.953C1136.47 279.501 1136.25 278.96 1136.25 278.33C1136.25 277.699 1136.47 277.158 1136.93 276.706C1137.38 276.254 1137.92 276.028 1138.55 276.028C1139.18 276.028 1139.72 276.254 1140.17 276.706C1140.63 277.158 1140.85 277.699 1140.85 278.33C1140.85 278.747 1140.74 279.131 1140.53 279.48C1140.33 279.83 1140.05 280.111 1139.7 280.324C1139.36 280.528 1138.98 280.631 1138.55 280.631Z" fill="black"/>
<rect x="26" y="448" width="1382" height="177" rx="16" fill="#FFFDFD"/>
<circle cx="124" cy="536" r="71" fill="#D9D9D9"/>
<path d="M179 580.5C134.2 542.9 87 564.833 69 580.5C81.8 595.7 93.5 601.463 110.5 605.5C123.833 608.667 156.2 608.1 179 580.5Z" fill="white"/>
<circle cx="124" cy="528" r="27" fill="white"/>
<path d="M242.659 492.909H246.182V513.705C246.182 515.561 245.841 517.137 245.159 518.435C244.477 519.732 243.516 520.717 242.276 521.389C241.035 522.062 239.572 522.398 237.886 522.398C236.295 522.398 234.88 522.109 233.639 521.531C232.399 520.944 231.423 520.111 230.713 519.031C230.003 517.952 229.648 516.669 229.648 515.182H233.114C233.114 516.006 233.317 516.725 233.724 517.341C234.141 517.947 234.709 518.42 235.429 518.761C236.149 519.102 236.968 519.273 237.886 519.273C238.9 519.273 239.761 519.06 240.472 518.634C241.182 518.207 241.722 517.582 242.091 516.759C242.47 515.925 242.659 514.907 242.659 513.705V492.909ZM261.651 522.455C259.681 522.455 257.953 521.986 256.466 521.048C254.989 520.111 253.833 518.799 253 517.114C252.176 515.428 251.764 513.458 251.764 511.205C251.764 508.932 252.176 506.948 253 505.253C253.833 503.558 254.989 502.241 256.466 501.304C257.953 500.366 259.681 499.898 261.651 499.898C263.62 499.898 265.344 500.366 266.821 501.304C268.308 502.241 269.463 503.558 270.287 505.253C271.12 506.948 271.537 508.932 271.537 511.205C271.537 513.458 271.12 515.428 270.287 517.114C269.463 518.799 268.308 520.111 266.821 521.048C265.344 521.986 263.62 522.455 261.651 522.455ZM261.651 519.443C263.147 519.443 264.378 519.06 265.344 518.293C266.31 517.526 267.025 516.517 267.489 515.267C267.953 514.017 268.185 512.663 268.185 511.205C268.185 509.746 267.953 508.387 267.489 507.128C267.025 505.868 266.31 504.85 265.344 504.074C264.378 503.297 263.147 502.909 261.651 502.909C260.154 502.909 258.923 503.297 257.957 504.074C256.991 504.85 256.277 505.868 255.812 507.128C255.348 508.387 255.116 509.746 255.116 511.205C255.116 512.663 255.348 514.017 255.812 515.267C256.277 516.517 256.991 517.526 257.957 518.293C258.923 519.06 260.154 519.443 261.651 519.443ZM283.075 522.511C281.692 522.511 280.437 522.251 279.31 521.73C278.183 521.2 277.289 520.438 276.626 519.443C275.963 518.439 275.631 517.227 275.631 515.807C275.631 514.557 275.878 513.544 276.37 512.767C276.862 511.981 277.521 511.366 278.344 510.92C279.168 510.475 280.077 510.144 281.072 509.926C282.076 509.699 283.084 509.519 284.097 509.386C285.423 509.216 286.498 509.088 287.322 509.003C288.155 508.908 288.761 508.752 289.14 508.534C289.528 508.316 289.722 507.937 289.722 507.398V507.284C289.722 505.883 289.339 504.794 288.572 504.017C287.814 503.241 286.664 502.852 285.12 502.852C283.52 502.852 282.265 503.203 281.356 503.903C280.447 504.604 279.808 505.352 279.438 506.148L276.256 505.011C276.825 503.686 277.582 502.653 278.529 501.915C279.486 501.167 280.527 500.646 281.654 500.352C282.79 500.049 283.908 499.898 285.006 499.898C285.707 499.898 286.512 499.983 287.421 500.153C288.34 500.314 289.225 500.651 290.077 501.162C290.939 501.673 291.654 502.445 292.222 503.477C292.79 504.509 293.075 505.892 293.075 507.625V522H289.722V519.045H289.552C289.325 519.519 288.946 520.026 288.415 520.565C287.885 521.105 287.18 521.564 286.299 521.943C285.418 522.322 284.344 522.511 283.075 522.511ZM283.586 519.5C284.912 519.5 286.029 519.24 286.938 518.719C287.857 518.198 288.548 517.526 289.012 516.702C289.486 515.878 289.722 515.011 289.722 514.102V511.034C289.58 511.205 289.268 511.361 288.785 511.503C288.311 511.635 287.762 511.754 287.137 511.858C286.522 511.953 285.92 512.038 285.333 512.114C284.755 512.18 284.287 512.237 283.927 512.284C283.056 512.398 282.241 512.582 281.484 512.838C280.736 513.084 280.129 513.458 279.665 513.96C279.211 514.453 278.984 515.125 278.984 515.977C278.984 517.142 279.415 518.023 280.276 518.619C281.147 519.206 282.251 519.5 283.586 519.5ZM280.859 497.568L278.245 497.455C278.245 496.006 278.657 494.822 279.481 493.903C280.314 492.975 281.342 492.511 282.563 492.511C283.103 492.511 283.581 492.606 283.998 492.795C284.415 492.975 284.812 493.184 285.191 493.42C285.57 493.657 285.958 493.87 286.356 494.06C286.763 494.24 287.222 494.33 287.734 494.33C288.273 494.33 288.728 494.121 289.097 493.705C289.476 493.278 289.665 492.767 289.665 492.17L292.222 492.398C292.222 493.875 291.806 495.049 290.972 495.92C290.148 496.792 289.126 497.227 287.904 497.227C287.251 497.227 286.711 497.137 286.285 496.957C285.859 496.768 285.48 496.555 285.148 496.318C284.817 496.081 284.467 495.873 284.097 495.693C283.728 495.504 283.273 495.409 282.734 495.409C282.194 495.409 281.744 495.622 281.384 496.048C281.034 496.465 280.859 496.972 280.859 497.568ZM308.057 522.455C306.087 522.455 304.359 521.986 302.872 521.048C301.395 520.111 300.24 518.799 299.406 517.114C298.582 515.428 298.17 513.458 298.17 511.205C298.17 508.932 298.582 506.948 299.406 505.253C300.24 503.558 301.395 502.241 302.872 501.304C304.359 500.366 306.087 499.898 308.057 499.898C310.027 499.898 311.75 500.366 313.227 501.304C314.714 502.241 315.869 503.558 316.693 505.253C317.527 506.948 317.943 508.932 317.943 511.205C317.943 513.458 317.527 515.428 316.693 517.114C315.869 518.799 314.714 520.111 313.227 521.048C311.75 521.986 310.027 522.455 308.057 522.455ZM308.057 519.443C309.553 519.443 310.784 519.06 311.75 518.293C312.716 517.526 313.431 516.517 313.895 515.267C314.359 514.017 314.591 512.663 314.591 511.205C314.591 509.746 314.359 508.387 313.895 507.128C313.431 505.868 312.716 504.85 311.75 504.074C310.784 503.297 309.553 502.909 308.057 502.909C306.561 502.909 305.33 503.297 304.364 504.074C303.398 504.85 302.683 505.868 302.219 507.128C301.755 508.387 301.523 509.746 301.523 511.205C301.523 512.663 301.755 514.017 302.219 515.267C302.683 516.517 303.398 517.526 304.364 518.293C305.33 519.06 306.561 519.443 308.057 519.443Z" fill="black"/>
<path d="M231.17 576V549.818H246.972V552.631H234.341V561.477H246.153V564.29H234.341V573.188H247.176V576H231.17ZM255.294 564.188V576H252.277V556.364H255.192V559.432H255.447C255.908 558.435 256.607 557.634 257.544 557.028C258.482 556.415 259.692 556.108 261.175 556.108C262.504 556.108 263.668 556.381 264.665 556.926C265.662 557.463 266.438 558.281 266.991 559.381C267.545 560.472 267.822 561.852 267.822 563.523V576H264.805V563.727C264.805 562.185 264.405 560.983 263.604 560.122C262.803 559.253 261.703 558.818 260.305 558.818C259.342 558.818 258.482 559.027 257.723 559.445C256.973 559.862 256.381 560.472 255.946 561.273C255.511 562.074 255.294 563.045 255.294 564.188ZM281.262 583.773C279.804 583.773 278.551 583.585 277.503 583.21C276.455 582.844 275.581 582.358 274.882 581.753C274.192 581.156 273.642 580.517 273.233 579.835L275.637 578.148C275.909 578.506 276.255 578.915 276.672 579.375C277.09 579.844 277.661 580.249 278.385 580.589C279.118 580.939 280.077 581.114 281.262 581.114C282.847 581.114 284.155 580.73 285.186 579.963C286.218 579.196 286.733 577.994 286.733 576.358V572.369H286.478C286.256 572.727 285.941 573.17 285.532 573.699C285.131 574.219 284.551 574.683 283.793 575.092C283.043 575.493 282.029 575.693 280.75 575.693C279.165 575.693 277.742 575.318 276.48 574.568C275.228 573.818 274.235 572.727 273.502 571.295C272.777 569.864 272.415 568.125 272.415 566.08C272.415 564.068 272.769 562.317 273.476 560.825C274.184 559.325 275.168 558.166 276.429 557.348C277.691 556.521 279.148 556.108 280.801 556.108C282.08 556.108 283.094 556.321 283.844 556.747C284.603 557.165 285.182 557.642 285.583 558.179C285.992 558.707 286.307 559.142 286.529 559.483H286.836V556.364H289.75V576.562C289.75 578.25 289.367 579.622 288.6 580.679C287.841 581.744 286.819 582.524 285.532 583.018C284.253 583.521 282.83 583.773 281.262 583.773ZM281.159 572.983C282.37 572.983 283.392 572.706 284.228 572.152C285.063 571.598 285.698 570.801 286.132 569.761C286.567 568.722 286.784 567.477 286.784 566.028C286.784 564.614 286.571 563.365 286.145 562.283C285.719 561.2 285.088 560.352 284.253 559.739C283.418 559.125 282.387 558.818 281.159 558.818C279.881 558.818 278.816 559.142 277.963 559.79C277.12 560.437 276.485 561.307 276.059 562.398C275.641 563.489 275.432 564.699 275.432 566.028C275.432 567.392 275.645 568.598 276.071 569.646C276.506 570.686 277.145 571.504 277.989 572.101C278.841 572.689 279.898 572.983 281.159 572.983ZM297.472 576.205C296.841 576.205 296.3 575.979 295.848 575.527C295.397 575.075 295.171 574.534 295.171 573.903C295.171 573.273 295.397 572.732 295.848 572.28C296.3 571.828 296.841 571.602 297.472 571.602C298.103 571.602 298.644 571.828 299.096 572.28C299.547 572.732 299.773 573.273 299.773 573.903C299.773 574.321 299.667 574.705 299.453 575.054C299.249 575.403 298.972 575.685 298.623 575.898C298.282 576.102 297.898 576.205 297.472 576.205ZM336.789 558H333.619C333.431 557.088 333.103 556.287 332.635 555.597C332.174 554.906 331.612 554.327 330.947 553.858C330.291 553.381 329.562 553.023 328.761 552.784C327.96 552.545 327.125 552.426 326.255 552.426C324.67 552.426 323.234 552.827 321.947 553.628C320.669 554.429 319.65 555.609 318.892 557.169C318.142 558.729 317.767 560.642 317.767 562.909C317.767 565.176 318.142 567.089 318.892 568.649C319.65 570.209 320.669 571.389 321.947 572.19C323.234 572.991 324.67 573.392 326.255 573.392C327.125 573.392 327.96 573.273 328.761 573.034C329.562 572.795 330.291 572.442 330.947 571.973C331.612 571.496 332.174 570.912 332.635 570.222C333.103 569.523 333.431 568.722 333.619 567.818H336.789C336.551 569.156 336.116 570.354 335.485 571.411C334.855 572.467 334.071 573.366 333.133 574.108C332.196 574.841 331.143 575.399 329.975 575.783C328.816 576.166 327.576 576.358 326.255 576.358C324.022 576.358 322.037 575.812 320.298 574.722C318.559 573.631 317.191 572.08 316.194 570.068C315.197 568.057 314.699 565.67 314.699 562.909C314.699 560.148 315.197 557.761 316.194 555.75C317.191 553.739 318.559 552.188 320.298 551.097C322.037 550.006 324.022 549.46 326.255 549.46C327.576 549.46 328.816 549.652 329.975 550.036C331.143 550.419 332.196 550.982 333.133 551.723C334.071 552.456 334.855 553.351 335.485 554.408C336.116 555.456 336.551 556.653 336.789 558ZM341.504 576V556.364H344.521V576H341.504ZM343.038 553.091C342.45 553.091 341.942 552.891 341.516 552.49C341.099 552.089 340.89 551.608 340.89 551.045C340.89 550.483 341.099 550.001 341.516 549.601C341.942 549.2 342.45 549 343.038 549C343.626 549 344.129 549.2 344.546 549.601C344.972 550.001 345.185 550.483 345.185 551.045C345.185 551.608 344.972 552.089 344.546 552.49C344.129 552.891 343.626 553.091 343.038 553.091ZM366.103 556.364L358.842 576H355.774L348.512 556.364H351.785L357.206 572.011H357.41L362.831 556.364H366.103ZM370.086 576V556.364H373.103V576H370.086ZM371.62 553.091C371.032 553.091 370.525 552.891 370.098 552.49C369.681 552.089 369.472 551.608 369.472 551.045C369.472 550.483 369.681 550.001 370.098 549.601C370.525 549.2 371.032 549 371.62 549C372.208 549 372.711 549.2 373.128 549.601C373.554 550.001 373.767 550.483 373.767 551.045C373.767 551.608 373.554 552.089 373.128 552.49C372.711 552.891 372.208 553.091 371.62 553.091ZM381.646 549.818V576H378.629V549.818H381.646Z" fill="black"/>
<g clip-path="url(#clip4_109_178)">
<path d="M1003.5 522L1011.92 547.912H1039.16L1017.12 563.926L1025.54 589.838L1003.5 573.824L981.458 589.838L989.877 563.926L967.835 547.912H995.081L1003.5 522Z" fill="#EFD404"/>
<path d="M1088.5 522L1096.92 547.912H1124.16L1102.12 563.926L1110.54 589.838L1088.5 573.824L1066.46 589.838L1074.88 563.926L1052.84 547.912H1080.08L1088.5 522Z" fill="#EFD404"/>
<path d="M1173.5 522L1181.92 547.912H1209.16L1187.12 563.926L1195.54 589.838L1173.5 573.824L1151.46 589.838L1159.88 563.926L1137.84 547.912H1165.08L1173.5 522Z" fill="#EFD404"/>
<path d="M1258.5 522L1266.92 547.912H1294.16L1272.12 563.926L1280.54 589.838L1258.5 573.824L1236.46 589.838L1244.88 563.926L1222.84 547.912H1250.08L1258.5 522Z" fill="#D6D6D6"/>
<path d="M1343.5 522L1351.92 547.912H1379.16L1357.12 563.926L1365.54 589.838L1343.5 573.824L1321.46 589.838L1329.88 563.926L1307.84 547.912H1335.08L1343.5 522Z" fill="#D6D6D6"/>
</g>
<path d="M969.17 506V479.818H978.017C980.071 479.818 981.75 480.189 983.054 480.93C984.366 481.663 985.338 482.656 985.969 483.909C986.599 485.162 986.915 486.56 986.915 488.102C986.915 489.645 986.599 491.047 985.969 492.308C985.347 493.57 984.384 494.575 983.08 495.325C981.776 496.067 980.105 496.438 978.068 496.438H971.727V493.625H977.966C979.372 493.625 980.501 493.382 981.354 492.896C982.206 492.411 982.824 491.754 983.207 490.928C983.599 490.092 983.795 489.151 983.795 488.102C983.795 487.054 983.599 486.116 983.207 485.29C982.824 484.463 982.202 483.815 981.341 483.347C980.48 482.869 979.338 482.631 977.915 482.631H972.341V506H969.17ZM999.635 506.409C997.743 506.409 996.111 505.991 994.739 505.156C993.375 504.312 992.322 503.136 991.581 501.628C990.848 500.111 990.482 498.347 990.482 496.335C990.482 494.324 990.848 492.551 991.581 491.017C992.322 489.474 993.354 488.273 994.675 487.412C996.004 486.543 997.555 486.108 999.328 486.108C1000.35 486.108 1001.36 486.278 1002.36 486.619C1003.36 486.96 1004.26 487.514 1005.08 488.281C1005.9 489.04 1006.55 490.045 1007.04 491.298C1007.52 492.551 1007.77 494.094 1007.77 495.926V497.205H992.629V494.597H1004.7C1004.7 493.489 1004.48 492.5 1004.03 491.631C1003.6 490.761 1002.98 490.075 1002.17 489.572C1001.37 489.07 1000.42 488.818 999.328 488.818C998.126 488.818 997.087 489.116 996.209 489.713C995.339 490.301 994.67 491.068 994.202 492.014C993.733 492.96 993.499 493.974 993.499 495.057V496.795C993.499 498.278 993.754 499.536 994.266 500.567C994.786 501.589 995.506 502.369 996.426 502.906C997.347 503.435 998.416 503.699 999.635 503.699C1000.43 503.699 1001.14 503.588 1001.78 503.366C1002.43 503.136 1002.99 502.795 1003.46 502.344C1003.93 501.884 1004.29 501.312 1004.54 500.631L1007.46 501.449C1007.15 502.438 1006.64 503.307 1005.91 504.057C1005.19 504.798 1004.29 505.378 1003.23 505.795C1002.16 506.205 1000.96 506.409 999.635 506.409ZM1012.36 506V486.364H1015.27V489.33H1015.47C1015.83 488.358 1016.48 487.57 1017.42 486.964C1018.36 486.359 1019.41 486.057 1020.59 486.057C1020.81 486.057 1021.09 486.061 1021.42 486.07C1021.75 486.078 1022 486.091 1022.17 486.108V489.176C1022.07 489.151 1021.84 489.112 1021.47 489.061C1021.11 489.001 1020.73 488.972 1020.33 488.972C1019.38 488.972 1018.53 489.172 1017.78 489.572C1017.03 489.964 1016.45 490.51 1016.01 491.209C1015.59 491.899 1015.37 492.687 1015.37 493.574V506H1012.36ZM1035.72 486.364V488.92H1025.14V486.364H1035.72ZM1028.31 506V483.653C1028.31 482.528 1028.57 481.591 1029.1 480.841C1029.63 480.091 1030.32 479.528 1031.16 479.153C1032 478.778 1032.89 478.591 1033.83 478.591C1034.57 478.591 1035.18 478.651 1035.65 478.77C1036.12 478.889 1036.47 479 1036.7 479.102L1035.83 481.71C1035.67 481.659 1035.46 481.595 1035.19 481.518C1034.92 481.442 1034.57 481.403 1034.14 481.403C1033.14 481.403 1032.42 481.655 1031.98 482.158C1031.54 482.661 1031.33 483.398 1031.33 484.369V506H1028.31ZM1039.95 506V486.364H1042.97V506H1039.95ZM1041.49 483.091C1040.9 483.091 1040.39 482.891 1039.97 482.49C1039.55 482.089 1039.34 481.608 1039.34 481.045C1039.34 480.483 1039.55 480.001 1039.97 479.601C1040.39 479.2 1040.9 479 1041.49 479C1042.07 479 1042.58 479.2 1043 479.601C1043.42 480.001 1043.63 480.483 1043.63 481.045C1043.63 481.608 1043.42 482.089 1043 482.49C1042.58 482.891 1042.07 483.091 1041.49 483.091ZM1051.51 479.818V506H1048.5V479.818H1051.51ZM1067.16 513.364V486.364H1070.08V489.483H1070.44C1070.66 489.142 1070.96 488.707 1071.36 488.179C1071.76 487.642 1072.33 487.165 1073.07 486.747C1073.82 486.321 1074.83 486.108 1076.11 486.108C1077.77 486.108 1079.22 486.521 1080.48 487.348C1081.75 488.175 1082.73 489.347 1083.44 490.864C1084.15 492.381 1084.5 494.17 1084.5 496.233C1084.5 498.312 1084.15 500.115 1083.44 501.641C1082.73 503.158 1081.75 504.334 1080.5 505.169C1079.24 505.996 1077.8 506.409 1076.16 506.409C1074.9 506.409 1073.89 506.2 1073.13 505.783C1072.38 505.357 1071.79 504.875 1071.38 504.338C1070.97 503.793 1070.66 503.341 1070.44 502.983H1070.18V513.364H1067.16ZM1070.13 496.182C1070.13 497.665 1070.35 498.973 1070.78 500.107C1071.22 501.232 1071.85 502.114 1072.69 502.753C1073.52 503.384 1074.54 503.699 1075.75 503.699C1077.02 503.699 1078.07 503.366 1078.91 502.702C1079.76 502.028 1080.4 501.125 1080.83 499.991C1081.26 498.849 1081.48 497.58 1081.48 496.182C1081.48 494.801 1081.27 493.557 1080.84 492.449C1080.43 491.332 1079.79 490.45 1078.94 489.803C1078.09 489.146 1077.03 488.818 1075.75 488.818C1074.53 488.818 1073.5 489.129 1072.66 489.751C1071.83 490.365 1071.19 491.226 1070.77 492.334C1070.34 493.433 1070.13 494.716 1070.13 496.182ZM1089.1 506V486.364H1092.02V489.33H1092.22C1092.58 488.358 1093.23 487.57 1094.16 486.964C1095.1 486.359 1096.16 486.057 1097.33 486.057C1097.56 486.057 1097.83 486.061 1098.17 486.07C1098.5 486.078 1098.75 486.091 1098.92 486.108V489.176C1098.82 489.151 1098.58 489.112 1098.22 489.061C1097.86 489.001 1097.48 488.972 1097.08 488.972C1096.12 488.972 1095.27 489.172 1094.52 489.572C1093.78 489.964 1093.19 490.51 1092.76 491.209C1092.33 491.899 1092.12 492.687 1092.12 493.574V506H1089.1ZM1109.88 506.409C1108.1 506.409 1106.55 505.987 1105.21 505.143C1103.88 504.3 1102.84 503.119 1102.09 501.602C1101.35 500.085 1100.98 498.312 1100.98 496.284C1100.98 494.239 1101.35 492.453 1102.09 490.928C1102.84 489.402 1103.88 488.217 1105.21 487.374C1106.55 486.53 1108.1 486.108 1109.88 486.108C1111.65 486.108 1113.2 486.53 1114.53 487.374C1115.87 488.217 1116.91 489.402 1117.65 490.928C1118.4 492.453 1118.77 494.239 1118.77 496.284C1118.77 498.312 1118.4 500.085 1117.65 501.602C1116.91 503.119 1115.87 504.3 1114.53 505.143C1113.2 505.987 1111.65 506.409 1109.88 506.409ZM1109.88 503.699C1111.22 503.699 1112.33 503.354 1113.2 502.663C1114.07 501.973 1114.71 501.065 1115.13 499.94C1115.55 498.815 1115.76 497.597 1115.76 496.284C1115.76 494.972 1115.55 493.749 1115.13 492.615C1114.71 491.482 1114.07 490.565 1113.2 489.866C1112.33 489.168 1111.22 488.818 1109.88 488.818C1108.53 488.818 1107.42 489.168 1106.55 489.866C1105.68 490.565 1105.04 491.482 1104.62 492.615C1104.2 493.749 1103.99 494.972 1103.99 496.284C1103.99 497.597 1104.2 498.815 1104.62 499.94C1105.04 501.065 1105.68 501.973 1106.55 502.663C1107.42 503.354 1108.53 503.699 1109.88 503.699ZM1132.12 486.364V488.92H1121.54V486.364H1132.12ZM1124.71 506V483.653C1124.71 482.528 1124.97 481.591 1125.5 480.841C1126.03 480.091 1126.72 479.528 1127.56 479.153C1128.4 478.778 1129.29 478.591 1130.23 478.591C1130.97 478.591 1131.58 478.651 1132.05 478.77C1132.51 478.889 1132.86 479 1133.09 479.102L1132.23 481.71C1132.07 481.659 1131.86 481.595 1131.59 481.518C1131.32 481.442 1130.97 481.403 1130.54 481.403C1129.54 481.403 1128.82 481.655 1128.38 482.158C1127.94 482.661 1127.73 483.398 1127.73 484.369V506H1124.71ZM1138.55 506.205C1137.92 506.205 1137.38 505.979 1136.93 505.527C1136.47 505.075 1136.25 504.534 1136.25 503.903C1136.25 503.273 1136.47 502.732 1136.93 502.28C1137.38 501.828 1137.92 501.602 1138.55 501.602C1139.18 501.602 1139.72 501.828 1140.17 502.28C1140.63 502.732 1140.85 503.273 1140.85 503.903C1140.85 504.321 1140.74 504.705 1140.53 505.054C1140.33 505.403 1140.05 505.685 1139.7 505.898C1139.36 506.102 1138.98 506.205 1138.55 506.205ZM1138.55 491.631C1137.92 491.631 1137.38 491.405 1136.93 490.953C1136.47 490.501 1136.25 489.96 1136.25 489.33C1136.25 488.699 1136.47 488.158 1136.93 487.706C1137.38 487.254 1137.92 487.028 1138.55 487.028C1139.18 487.028 1139.72 487.254 1140.17 487.706C1140.63 488.158 1140.85 488.699 1140.85 489.33C1140.85 489.747 1140.74 490.131 1140.53 490.48C1140.33 490.83 1140.05 491.111 1139.7 491.324C1139.36 491.528 1138.98 491.631 1138.55 491.631Z" fill="black"/>
</g>
<defs>
<clipPath id="clip0_109_178">
<rect width="1434" height="576" rx="16" fill="white"/>
</clipPath>
<clipPath id="clip1_109_178">
<rect width="415" height="75" fill="white" transform="translate(966 100)"/>
</clipPath>
<clipPath id="clip2_109_178">
<rect width="415" height="75" fill="white" transform="translate(966 311)"/>
</clipPath>
<clipPath id="clip3_109_178">
<rect width="37" height="75" fill="white" transform="translate(1306 311)"/>
</clipPath>
<clipPath id="clip4_109_178">
<rect width="415" height="75" fill="white" transform="translate(966 522)"/>
</clipPath>
</defs>
</svg>
